<?xml version="1.0" encoding="UTF-8"?>
<svg id="Layer_1" data-name="Layer 1" xmlns="http://www.w3.org/2000/svg" version="1.1" viewBox="0 0 600 198.6">
  <defs>
    <style>
      .cls-1 {
        fill: none;
        stroke: #fff;
        stroke-miterlimit: 10;
        stroke-width: .7px;
      }

      .cls-2 {
        fill: #fdcb47;
      }

      .cls-2, .cls-3 {
        stroke-width: 0px;
      }

      .cls-3 {
        fill: #fff;
      }
    </style>
  </defs>
  <g>
    <g>
      <path class="cls-3" d="M124.7,147.6c-4.2,0-7.9-.9-11.3-2.7s-6-4.4-8-7.9-2.9-7.8-2.9-12.8,1-9.4,2.9-12.9,4.6-6.1,8-7.9c3.4-1.8,7.1-2.7,11.3-2.7s7.9.9,11.3,2.7c3.4,1.8,6,4.4,8,7.9s3,7.8,3,12.9-1,9.4-3,12.9-4.6,6.1-8,7.9c-3.4,1.8-7.1,2.7-11.3,2.7h0ZM124.7,136.8c2.1,0,3.8-.5,5.2-1.5s2.5-2.4,3.2-4.3c.7-1.9,1.1-4.2,1.1-6.9s-.4-5.1-1.1-7c-.7-1.9-1.8-3.3-3.2-4.3s-3.1-1.5-5.2-1.5-3.8.5-5.2,1.5c-1.4,1-2.5,2.4-3.2,4.3-.7,1.9-1.1,4.2-1.1,7s.4,5,1.1,6.9,1.8,3.3,3.2,4.3c1.4,1,3.1,1.5,5.2,1.5Z"/>
      <path class="cls-3" d="M151.2,147v-45.8h32.2v10h-19.8v10.3h17.8v9.8h-17.8v15.7h-12.4Z"/>
      <g>
        <path class="cls-3" d="M193.1,111.3v-10h39.8v10h-13.8v35.8h-12.2v-35.8h-13.8Z"/>
        <path class="cls-3" d="M236,147v-45.8h12.4v17.9h16.5v-17.9h12.4v45.8h-12.4v-17.9h-16.5v17.9h-12.4Z"/>
        <path class="cls-3" d="M281.7,147v-45.8h33v10h-20.6v7.7h18.9v9.8h-18.9v8.2h20.5v10h-32.9Z"/>
      </g>
      <g>
        <path class="cls-3" d="M322.4,101.2h13.9l8.9,18.6h.4l9-18.6h13.8l-16.8,31.4v14.4h-12.3v-14.4l-16.8-31.4h-.1Z"/>
        <path class="cls-3" d="M370.9,147v-45.8h33v10h-20.6v7.7h18.9v9.8h-18.9v8.2h20.5v10h-32.9Z"/>
        <path class="cls-3" d="M420.5,147h-13.4l15.1-45.8h17l15.1,45.8h-13.4l-10-33.2h-.4l-10,33.2h0ZM418,129h25.2v9.3h-25.2v-9.3Z"/>
        <path class="cls-3" d="M457.1,147v-45.8h19.7c3.4,0,6.4.6,8.9,1.9,2.5,1.2,4.5,3,6,5.3,1.4,2.3,2.1,5.1,2.1,8.3s-.7,6-2.2,8.3-3.5,4-6.1,5.1-5.7,1.7-9.2,1.7h-11.8v-9.6h9.3c1.5,0,2.7-.2,3.8-.6s1.8-1,2.4-1.8.8-1.9.8-3.2-.3-2.4-.8-3.2-1.4-1.4-2.4-1.8c-1-.4-2.3-.6-3.8-.6h-4.4v35.8h-12.4v.2ZM481.9,147l-11.2-21h13.2l11.5,21h-13.5Z"/>
      </g>
      <g>
        <path class="cls-3" d="M114.5,198.1h-13.4l15.1-45.8h17l15.1,45.8h-13.4l-10-33.2h-.4l-10,33.2h0ZM112,180h25.2v9.3h-25.2v-9.3Z"/>
        <path class="cls-3" d="M157.3,198.1l-13.5-45.8h13.9l6.3,28.1h.4l7.4-28.1h10.9l7.4,28.3h.4l6.3-28.3h13.9l-13.5,45.8h-11.9l-7.7-25.6h-.4l-7.7,25.6h-12.2Z"/>
        <path class="cls-3" d="M219.4,198.1h-13.4l15.1-45.8h17l15.1,45.8h-13.4l-10-33.2h-.4l-10,33.2h0ZM217,180h25.2v9.3h-25.2v-9.3Z"/>
        <path class="cls-3" d="M256.1,198.1v-45.8h19.7c3.4,0,6.4.6,8.9,1.9,2.5,1.2,4.5,3,6,5.3,1.4,2.3,2.1,5.1,2.1,8.3s-.7,6-2.2,8.3-3.5,4-6.1,5.1-5.7,1.7-9.2,1.7h-11.8v-9.6h9.3c1.5,0,2.7-.2,3.8-.6s1.8-1,2.4-1.8.8-1.9.8-3.2-.3-2.4-.8-3.2-1.4-1.4-2.4-1.8c-1-.4-2.3-.6-3.8-.6h-4.4v35.8h-12.4v.2ZM280.9,198.1l-11.2-21h13.2l11.5,21h-13.5Z"/>
        <path class="cls-3" d="M309.1,152.3v45.8h-12.4v-45.8h12.4ZM314.3,198.1h-12.5v-10.6h12c2.3,0,4.2-.4,5.8-1.1s2.8-2,3.7-3.8c.8-1.8,1.3-4.3,1.3-7.5s-.4-5.7-1.3-7.5-2.1-3.1-3.8-3.8c-1.7-.7-3.7-1.1-6.1-1.1h-11.9v-10.6h12.5c4.7,0,8.8.9,12.2,2.7,3.4,1.8,6.1,4.5,7.9,7.9s2.8,7.5,2.8,12.3-.9,8.8-2.8,12.3-4.5,6-7.9,7.9c-3.4,1.8-7.4,2.7-12.1,2.7h0l.2.2Z"/>
        <path class="cls-3" d="M359.9,198.6c-4,0-7.4-.6-10.4-1.8s-5.3-3-6.9-5.5-2.5-5.6-2.5-9.4h11.8c0,1.4.4,2.6,1.1,3.5.6,1,1.5,1.7,2.6,2.2s2.5.7,4.1.7,2.4-.2,3.3-.5,1.6-.8,2-1.4c.5-.6.7-1.3.7-2s-.2-1.3-.7-1.8c-.4-.5-1.2-1-2.2-1.4s-2.4-.8-4.1-1.2l-4.6-1c-4-.9-7.2-2.3-9.5-4.4-2.3-2.1-3.5-4.9-3.5-8.5s.8-5.5,2.4-7.6c1.6-2.2,3.8-3.9,6.5-5.1,2.8-1.2,6-1.8,9.6-1.8s6.9.6,9.6,1.9c2.7,1.2,4.8,3,6.2,5.2,1.5,2.2,2.2,4.9,2.2,7.8h-11.9c-.1-1.5-.6-2.7-1.6-3.5s-2.5-1.2-4.5-1.2-2.3.1-3.1.4c-.8.3-1.4.7-1.8,1.2s-.6,1.1-.6,1.8.2,1.3.6,1.9c.4.5,1.1,1,2,1.4s2.1.8,3.5,1.1l3.7.8c2.5.5,4.7,1.2,6.5,2.1,1.8.9,3.3,1.9,4.5,3.1,1.2,1.2,2,2.5,2.5,4s.8,3.1.8,4.8c0,3-.7,5.6-2.2,7.7-1.5,2.1-3.6,3.7-6.4,4.8s-6.1,1.6-10,1.6h.3Z"/>
      </g>
    </g>
    <path class="cls-2" d="M127.2,64.8c-.4.5-.9,1-1.3,1.5s-.8,1.1-1.2,1.6c-.4.6-.8,1.2-1.2,1.8-.4.6-.8,1.3-1.2,1.9-.5.9-1,1.8-1.4,2.6-.4.8-.7,1.6-.9,2.3s-.4,1.4-.4,2c0,.9,0,1.8.2,2.5s.6,1.3,1.1,1.8,1.1.8,1.9,1.1,1.7.4,2.7.4,1.1,0,1.7-.1c.5,0,1.1-.2,1.6-.3s1-.3,1.5-.5,1-.5,1.4-.7c.5-.3.9-.6,1.3-.9s.8-.7,1.2-1.1c.4-.4.8-.8,1.1-1.2s.7-.9,1-1.4h12.6c-.4.6-.8,1.3-1.3,2s-1,1.3-1.5,2-1.1,1.3-1.7,2c-.4.5-.9,1-1.4,1.5s-.9,1-1.4,1.4c-.5.5-1,.9-1.5,1.4-.5.4-1,.9-1.6,1.3s-1.1.8-1.6,1.2-1.1.7-1.7,1.1-1.2.7-1.8,1-1.2.6-1.9.8c-.7.3-1.3.5-2,.7s-1.4.4-2.1.5-1.5.2-2.3.3h-2.4c-.8,0-1.7,0-2.5-.1-.8,0-1.6-.2-2.3-.3-.8-.1-1.5-.3-2.2-.5s-1.4-.5-2.1-.8-1.3-.6-1.9-1c-.8-.5-1.5-1-2.1-1.5-.6-.6-1.2-1.2-1.7-1.8-.5-.7-.9-1.4-1.2-2.1-.3-.8-.6-1.6-.7-2.5,0-.6,0-1.2,0-1.8s0-1.3.2-1.9c0-.7.3-1.4.5-2.1s.5-1.4.8-2.2.6-1.5,1-2.3.8-1.6,1.3-2.5c.4-.7.8-1.4,1.3-2.1s.9-1.4,1.3-2c.4-.7.9-1.3,1.3-1.9s.9-1.2,1.4-1.8.9-1.2,1.4-1.7c.5-.6.9-1.1,1.4-1.6s.9-1,1.4-1.6l1.7-1.7c.6-.6,1.1-1,1.7-1.5.5-.5,1.1-1,1.7-1.4s1.1-.9,1.7-1.3,1.1-.8,1.7-1.1c.6-.3,1.2-.7,1.8-1,.7-.4,1.4-.7,2.1-1s1.4-.5,2.2-.8c.7-.2,1.5-.4,2.2-.5.8,0,1.5-.3,2.3-.3s1.6,0,2.4,0h2.1c.7,0,1.4,0,2,.2.7,0,1.3.2,1.9.4.6,0,1.2.3,1.8.5.8.3,1.6.6,2.3.9s1.4.7,2,1.2c.6.4,1.2.9,1.7,1.4s1,1.1,1.3,1.6c.4.6.7,1.2.9,1.9.2.7.4,1.4.5,2.1v1.7c0,.6-.1,1.2-.2,1.8-.1.6-.3,1.3-.5,2s-.5,1.4-.8,2.1h-12.6c.2-.5.4-1,.5-1.5s.2-.9.2-1.4c0-.9-.1-1.6-.5-2.2s-1-1.1-1.8-1.4c-.4-.2-.8-.3-1.3-.4-.5,0-1.1,0-1.7,0s-1.4,0-2,.2-1.3.3-2,.5c-.6.2-1.3.5-1.9.8s-1.2.7-1.8,1.2c-.6.4-1.2.9-1.8,1.5-.6.5-1.2,1.1-1.7,1.7h0v-.4ZM182.4,77.4v2.7c0,.9.1,1.7.2,2.4,0,.8.2,1.5.3,2.3.1.7.3,1.5.4,2.2s.4,1.5.6,2.3c.2.8.5,1.6.9,2.4.3.9.7,1.8,1.3,2.7h-13.5c-.4-.9-.8-1.7-1.1-2.4s-.5-1.5-.8-2.2c-.2-.7-.4-1.3-.5-2s-.3-1.3-.4-1.9-.2-1.3-.3-2-.2-1.4-.2-2.2,0-1.6-.1-2.4h-4.3c-.4.9-.8,1.7-1.2,2.4s-.7,1.5-.9,2.2c-.3.7-.5,1.3-.8,2s-.4,1.3-.6,1.9-.4,1.3-.5,2-.3,1.4-.4,2.2c-.1.8-.2,1.6-.2,2.4h-12.4c0-.9.1-1.8.2-2.7.1-.9.3-1.7.5-2.6s.4-1.6.7-2.4c.3-.8.5-1.6.9-2.4.3-.8.6-1.5,1-2.3.3-.7.7-1.5,1-2.2s.7-1.4,1.1-2.1c.4-.7.7-1.4,1.1-2.1.4-.7.8-1.4,1.1-2.1.4-.7.8-1.4,1.2-2.1s.8-1.4,1.2-2.1.8-1.4,1.1-2.1c.4-.7.8-1.4,1.1-2.1s.7-1.4,1.1-2.1.7-1.5,1-2.2.7-1.5,1-2.3.6-1.6.9-2.3c.3-.8.5-1.6.7-2.4s.4-1.7.5-2.6.2-1.8.2-2.7h19.7c.8,0,1.7,0,2.5,0s1.6.2,2.3.3,1.4.3,2.1.6c.7.2,1.3.5,1.9.8.8.4,1.5.9,2.2,1.4.6.5,1.2,1.1,1.6,1.8s.8,1.4,1,2.1c.2.6.3,1.2.3,1.8s0,1.3-.1,2-.3,1.4-.6,2.2c-.3.8-.6,1.5-1,2.3-.3.7-.7,1.3-1.1,1.9-.4.6-.8,1.2-1.2,1.8-.4.6-.9,1.1-1.4,1.7l-1.5,1.5c-.5.5-1,1-1.6,1.4-.6.5-1.3,1-1.9,1.5s-1.3.9-2,1.3-1.4.8-2.1,1.1c-.7.3-1.4.7-2.2.9h0v.4ZM170.1,69.7h4.4c.7,0,1.4,0,2.1,0,.7,0,1.3-.2,2-.4.6-.2,1.2-.4,1.8-.7.6-.3,1.1-.6,1.6-1s1-.9,1.4-1.4.8-1.1,1.1-1.8c.3-.7.6-1.2.7-1.8s.1-1,0-1.4c-.2-.8-.7-1.4-1.6-1.8-.4-.2-1-.3-1.6-.4-.6,0-1.3,0-2,0h-4.4c-.3.9-.7,1.7-1,2.4-.3.7-.7,1.4-1,2.1s-.7,1.3-1,2c-.4.7-.7,1.4-1.1,2.1s-.8,1.5-1.3,2.4h0ZM188.4,94.5h32.9c0-.8,0-1.5.2-2.2,0-.7.2-1.3.3-1.9s.3-1.2.4-1.8c.2-.6.4-1.2.6-1.9s.5-1.4.8-2.2h-20.5c.3-.8.6-1.5.9-2.2.3-.7.6-1.3.9-1.9.3-.6.6-1.2,1-1.9.3-.7.7-1.4,1.2-2.2h18.9c.4-.8.8-1.5,1.2-2.1.4-.7.7-1.3,1-1.9s.7-1.2,1-1.8c.3-.6.7-1.2,1-1.9.4-.7.8-1.4,1.2-2.1h-18.9c.4-.8.8-1.5,1.1-2.1s.6-1.2.9-1.8c.3-.6.5-1.2.8-1.8s.6-1.3.9-2.1h20.6c.3-.8.6-1.5.8-2.2s.4-1.3.6-1.9.3-1.2.4-1.8c.1-.6.2-1.2.3-1.9,0-.7.1-1.4.2-2.2h-33c0,.9-.1,1.8-.2,2.7s-.3,1.7-.5,2.6-.4,1.6-.7,2.4-.5,1.6-.9,2.3c-.3.8-.6,1.5-1,2.3-.3.7-.7,1.5-1,2.2s-.7,1.4-1.1,2.1c-.4.7-.7,1.4-1.1,2.1s-.8,1.4-1.1,2.1c-.4.7-.8,1.4-1.2,2.1s-.8,1.4-1.2,2.1-.8,1.4-1.1,2.1c-.4.7-.8,1.4-1.1,2.1s-.7,1.4-1.1,2.1c-.4.7-.7,1.5-1,2.2s-.7,1.5-1,2.3-.6,1.6-.9,2.4c-.3.8-.5,1.6-.7,2.4s-.4,1.7-.5,2.6-.2,1.8-.2,2.7h0ZM274.2,48.7c.3,1,.5,1.9.7,2.8s.3,1.8.3,2.7v2.6c0,.8,0,1.7-.1,2.5s-.1,1.6-.2,2.4-.2,1.5-.4,2.3c-.1.8-.3,1.5-.4,2.2s-.3,1.5-.5,2.2-.3,1.5-.5,2.2-.3,1.4-.5,2.2-.3,1.4-.5,2.2c-.2.7-.3,1.5-.5,2.2-.1.7-.3,1.5-.4,2.2-.1.8-.2,1.5-.4,2.3s-.2,1.6-.2,2.4-.1,1.6-.1,2.5v2.6c0,.9.2,1.8.3,2.7s.4,1.9.7,2.8h-13.4c-.2-.9-.4-1.6-.5-2.4-.1-.7-.2-1.4-.3-2s0-1.3-.1-2v-2.4h-15.1c-.6.9-1.1,1.6-1.5,2.4-.4.7-.8,1.4-1.1,2-.3.7-.7,1.3-1,2s-.6,1.5-.9,2.4h-13.4c.3-.8.6-1.6,1-2.3.4-.8.7-1.5,1.1-2.2.4-.7.8-1.5,1.3-2.2.4-.7.9-1.4,1.4-2.1.5-.7,1-1.4,1.4-2s1-1.3,1.5-2,1-1.3,1.5-1.9,1-1.2,1.6-1.9,1.1-1.2,1.6-1.8c.5-.6,1.1-1.2,1.6-1.8s1.1-1.2,1.6-1.8c.5-.6,1.1-1.2,1.6-1.8s1.1-1.2,1.6-1.8c.5-.6,1.1-1.2,1.6-1.8.5-.6,1.1-1.2,1.6-1.8.5-.6,1-1.2,1.6-1.9.5-.6,1-1.3,1.5-1.9s1-1.3,1.5-2,1-1.3,1.4-2c.5-.7.9-1.4,1.4-2.1.4-.7.9-1.4,1.3-2.2s.8-1.5,1.1-2.2c.4-.8.7-1.5,1-2.3h17l.2-.2ZM259,76.4c.2-.9.4-1.7.6-2.4s.4-1.5.6-2.2.4-1.3.5-2,.3-1.3.5-1.9.3-1.3.5-2,.3-1.4.5-2.2c.1-.8.3-1.6.4-2.4h-.4c-.6.8-1.1,1.5-1.7,2.1s-1.1,1.3-1.6,1.9-1,1.2-1.5,1.8c-.5.6-1,1.1-1.5,1.7s-1,1.1-1.5,1.7-1,1.2-1.5,1.8c-.5.6-1.1,1.3-1.7,1.9s-1.2,1.4-1.8,2.1h9.6ZM282.9,58.7h13.8c-.4.9-.7,1.8-1.1,2.6-.4.8-.8,1.7-1.2,2.5-.4.8-.8,1.6-1.2,2.3-.4.8-.8,1.5-1.2,2.2-.4.7-.8,1.4-1.2,2.1-.4.7-.8,1.4-1.2,2.1s-.8,1.4-1.1,2-.7,1.3-1.1,2c-.4.7-.7,1.3-1.1,2-.3.7-.7,1.4-1,2s-.6,1.4-1,2.1c-.3.7-.6,1.4-.9,2.1-.3.7-.5,1.5-.8,2.2-.2.8-.5,1.5-.7,2.3s-.4,1.6-.5,2.5c-.1.8-.2,1.7-.2,2.6h12.2c0-.9.1-1.8.2-2.6s.3-1.7.5-2.5.4-1.6.7-2.3.5-1.5.8-2.2.6-1.4.9-2.1c.3-.7.6-1.4,1-2.1s.7-1.4,1-2,.7-1.3,1.1-2,.7-1.3,1.1-2,.8-1.4,1.1-2,.8-1.4,1.2-2.1c.4-.7.8-1.4,1.2-2.1s.8-1.5,1.2-2.2c.4-.8.8-1.5,1.2-2.3.4-.8.8-1.6,1.2-2.5.4-.8.8-1.7,1.1-2.6h13.8c.3-.8.6-1.5.8-2.2s.4-1.3.6-1.9.3-1.2.4-1.8c.1-.6.2-1.2.3-1.9,0-.7.1-1.4.2-2.2h-39.8c0,.8,0,1.5-.2,2.2s-.2,1.3-.3,1.9-.3,1.2-.4,1.8-.4,1.2-.6,1.9-.5,1.4-.8,2.2h0ZM365,58.7c0,.6.1,1.2.1,1.8s0,1.3-.2,1.9c-.1.7-.3,1.4-.5,2.1s-.5,1.5-.8,2.2c-.3.8-.7,1.5-1,2.3-.4.8-.8,1.6-1.3,2.5-.4.7-.8,1.4-1.3,2.1-.4.7-.9,1.4-1.3,2s-.9,1.3-1.3,1.9c-.5.6-.9,1.2-1.4,1.8s-.9,1.2-1.4,1.7-.9,1.1-1.4,1.6-.9,1-1.4,1.5-1.1,1.1-1.7,1.7c-.6.5-1.1,1-1.7,1.5s-1.1,1-1.7,1.4-1.1.9-1.7,1.3c-.6.4-1.1.8-1.7,1.1s-1.2.7-1.8,1c-.7.4-1.4.7-2.2,1-.7.3-1.5.5-2.2.8-.7.2-1.5.4-2.3.5s-1.6.2-2.4.3c-.8,0-1.6.1-2.4.1s-1.6,0-2.4-.1c-.8,0-1.6-.2-2.3-.3-.8-.1-1.5-.3-2.2-.5s-1.4-.5-2.1-.8-1.3-.6-2-1c-.8-.5-1.5-1-2.2-1.5-.7-.6-1.2-1.2-1.7-1.8-.5-.7-.9-1.4-1.2-2.1-.3-.8-.6-1.6-.7-2.5,0-.6-.1-1.2-.1-1.8s0-1.3.2-1.9c.1-.7.3-1.4.5-2.1s.5-1.4.8-2.2.6-1.5,1-2.3.8-1.6,1.3-2.5c.4-.7.8-1.4,1.3-2.1s.9-1.4,1.3-2c.4-.7.9-1.3,1.3-1.9s.9-1.2,1.4-1.8c.5-.6.9-1.2,1.4-1.7.5-.6.9-1.1,1.4-1.6s.9-1,1.4-1.6c.6-.6,1.1-1.1,1.7-1.7.6-.5,1.1-1,1.7-1.5s1.1-1,1.7-1.4,1.1-.9,1.7-1.3,1.1-.8,1.7-1.1c.6-.3,1.2-.7,1.8-1,.7-.4,1.4-.7,2.2-1,.7-.3,1.5-.5,2.2-.8.7-.2,1.5-.4,2.3-.5s1.6-.3,2.4-.3,1.6,0,2.4,0,1.6,0,2.4,0,1.6.2,2.3.3c.8,0,1.5.3,2.2.5s1.4.5,2.1.8,1.3.6,2,1c.8.4,1.5,1,2.2,1.5s1.2,1.2,1.7,1.8c.5.7.9,1.4,1.3,2.1.3.8.6,1.6.7,2.5h0ZM348.7,71.6c.5-.9,1-1.8,1.3-2.6.4-.8.7-1.6.9-2.3s.4-1.4.5-2c.1-.9,0-1.8,0-2.5-.2-.7-.5-1.3-1-1.8s-1.1-.9-1.9-1.1-1.7-.4-2.7-.4-1.4,0-2,.2-1.3.3-1.9.5-1.2.5-1.9.8c-.6.3-1.2.7-1.8,1.1-.6.4-1.2.9-1.7,1.4-.6.5-1.1,1.1-1.7,1.7-.4.5-.8,1-1.3,1.5-.4.5-.8,1.1-1.2,1.7-.4.6-.8,1.2-1.2,1.8-.4.6-.8,1.3-1.2,2-.5.9-1,1.8-1.3,2.6-.4.8-.7,1.6-.9,2.3-.2.7-.4,1.4-.5,2-.1.9,0,1.8.1,2.5.2.7.5,1.3,1,1.8s1.1.9,1.9,1.1c.8.2,1.7.4,2.7.4s1.4,0,2-.2c.7-.1,1.3-.3,1.9-.5s1.3-.5,1.9-.8,1.2-.7,1.8-1.1,1.2-.9,1.7-1.4,1.1-1.1,1.7-1.7c.4-.5.8-1,1.3-1.5.4-.5.8-1.1,1.2-1.6.4-.6.8-1.2,1.2-1.8.4-.6.8-1.3,1.2-2h-.1ZM378.2,79.3h-4.3c-.4.9-.8,1.7-1.2,2.4-.3.8-.7,1.5-.9,2.2-.3.7-.5,1.3-.8,2s-.4,1.3-.6,1.9-.4,1.3-.5,2-.3,1.4-.4,2.2-.2,1.6-.2,2.4h-12.4c0-.9.1-1.8.2-2.7s.3-1.7.5-2.6.4-1.6.7-2.4c.3-.8.5-1.6.9-2.4.3-.8.6-1.5,1-2.3s.7-1.5,1-2.2.7-1.4,1.1-2.1c.4-.7.7-1.4,1.1-2.1s.8-1.4,1.1-2.1c.4-.7.8-1.4,1.2-2.1s.8-1.4,1.2-2.1c.4-.7.8-1.4,1.1-2.1.4-.7.8-1.4,1.1-2.1.4-.7.7-1.4,1.1-2.1s.7-1.5,1-2.2.7-1.5,1-2.3.6-1.6.9-2.3.5-1.6.7-2.4.4-1.7.5-2.6.2-1.8.2-2.7h19.7c.8,0,1.7,0,2.5,0s1.6.2,2.3.3,1.4.3,2.1.6c.7.2,1.3.5,1.9.8.8.4,1.5.9,2.2,1.4.6.5,1.2,1.1,1.6,1.8.4.7.8,1.4,1,2.1.2.6.3,1.2.3,1.8s0,1.3-.1,2-.3,1.4-.6,2.2c-.3.8-.6,1.5-1,2.3-.3.7-.7,1.3-1.1,1.9s-.8,1.2-1.2,1.8c-.4.6-.9,1.1-1.4,1.7l-1.5,1.5c-.5.5-1,1-1.6,1.4-.6.5-1.3,1-1.9,1.5-.7.5-1.3.9-2,1.3s-1.4.8-2.1,1.1c-.7.3-1.4.7-2.2.9v2.7c0,.9.1,1.7.2,2.4,0,.8.2,1.5.3,2.3.1.7.3,1.5.4,2.2.2.7.4,1.5.6,2.3s.5,1.6.9,2.4c.3.9.7,1.8,1.3,2.7h-13.5c-.4-.9-.8-1.7-1.1-2.4-.3-.8-.5-1.5-.8-2.2-.2-.7-.4-1.3-.5-2s-.3-1.3-.4-1.9-.2-1.3-.3-2-.2-1.4-.2-2.2,0-1.6-.1-2.4h0v.4ZM379.2,69.7h4.4c.7,0,1.4,0,2.1,0,.7,0,1.3-.2,2-.4.6-.2,1.2-.4,1.8-.7s1.1-.6,1.6-1,1-.9,1.4-1.4.8-1.1,1.1-1.8c.3-.7.6-1.2.7-1.8s.1-1,0-1.4c-.2-.8-.7-1.4-1.6-1.8-.4-.2-1-.3-1.6-.4s-1.3,0-2,0h-4.4c-.3.9-.7,1.7-1,2.4-.3.7-.7,1.4-1,2.1s-.7,1.3-1,2c-.4.7-.7,1.4-1.1,2.1s-.8,1.5-1.3,2.4h-.1Z"/>
    <path class="cls-1" d="M159.6,0h-62.4C95.1,0,93.4,1.7,93.4,3.8v25.3c0,2.1,1.7,3.8,3.8,3.8h21.1c1,0,2,.4,2.7,1.1l4.7,4.7c1.5,1.5,3.9,1.5,5.4,0l4.7-4.7c.7-.7,1.7-1.1,2.7-1.1h21.1c2.1,0,3.8-1.7,3.8-3.8V3.8C163.4,1.7,161.7,0,159.6,0h0Z"/>
  </g>
  <g>
    <path class="cls-3" d="M113.6,13.6c0-2.8-2.7-4.5-5.3-4.5h-7.4v14.7h4.4v-7.1l3.4,7h0c0,0,5,0,5,0l-3.5-6.2c2-.6,3.3-2.1,3.3-4h0ZM105.3,11.2h1.3c1.4,0,2.4,1,2.4,2.4,0,2.1-1.2,2.5-3.2,2.5h-.5s0-4.9,0-4.9Z"/>
    <polygon class="cls-3" points="151.4 21.4 151.4 17.4 156.2 17.4 156.2 15.1 151.4 15.1 151.4 11.4 156.8 11.4 156.8 9.1 147 9.1 147 23.8 156.7 23.8 156.7 21.4 151.4 21.4"/>
    <path class="cls-3" d="M137.9,9.1h-6.5v14.7h7.2c4.4,0,7.2-2.8,7.2-7.1s-3.3-7.6-7.9-7.6h0ZM141.2,16.1c0,2.7-1.1,5.6-4.1,5.6h-1.5v-10.7h1.3c3,0,4.3,2.5,4.3,5h0Z"/>
    <path class="cls-3" d="M129.8,10.1l-1.2-1.2-1.5,1.5c-1.3-1-3-1.7-4.9-1.7-4.4,0-7.8,3.4-7.8,7.7s.6,3.6,1.7,4.9l-1.5,1.5,1.2,1.2,1.5-1.5c1.3,1,3,1.6,4.8,1.6,4.4,0,7.8-3.4,7.8-7.7s-.6-3.5-1.7-4.8l1.5-1.5h.1ZM122.2,10.6c1.4,0,2.2.9,2.6,2l-5.7,5.7c0-.7,0-1.4,0-1.9,0-1.8.3-5.8,3.2-5.8h0ZM125.3,14.6c0,.7,0,1.4,0,1.8,0,1.8-.3,5.8-3.2,5.8s-2.1-.9-2.6-1.9l5.7-5.7h0Z"/>
  </g>
</svg>