<?xml version="1.0" encoding="utf-8"?>
<!-- Generator: Adobe Illustrator 27.9.0, SVG Export Plug-In . SVG Version: 6.00 Build 0)  -->
<svg version="1.1" id="Layer_1" xmlns="http://www.w3.org/2000/svg" xmlns:xlink="http://www.w3.org/1999/xlink" x="0px" y="0px"
	 viewBox="0 0 590 58" style="enable-background:new 0 0 590 58;" xml:space="preserve">
<style type="text/css">
	.st0{fill:none;}
</style>
<g id="Layer_1_00000065754524661245697660000014047651920350992572_">
	<g id="NT1_LOGO">
		<g id="NT1_Logo">
			<polygon points="182.56,0 182.56,40.31 182.4,40.31 157.74,0 140.37,0 140.37,58 153.15,58 153.15,16.71 153.31,16.71 178.63,58 
				195.34,58 195.34,11.31 211.54,11.31 211.54,58 224.31,58 224.31,11.31 240.86,11.31 240.86,0 			"/>
			<path d="M261.68,13.76L250.05,24l-6.96-8.03L262.01,0h11.47v58h-11.8L261.68,13.76L261.68,13.76z"/>
			<g id="SIGNATURE">
				<path d="M325.03,31.05c0.13,0.11,0.15,0.25,0.03,0.4c-0.13,0.16-0.32,0.37-0.57,0.64c-0.18,0.18-0.38,0.38-0.6,0.61
					c-0.38,0.38-0.78,0.77-1.21,1.18c-0.47,0.4-0.9,0.77-1.28,1.11c-0.25,0.2-0.47,0.38-0.67,0.54c-0.31,0.2-0.57,0.36-0.77,0.47
					c-0.09,0.04-0.17,0.08-0.24,0.1c-0.11,0.04-0.22,0.08-0.34,0.1c-0.07,0-0.11,0-0.13,0c-0.02,0-0.04,0-0.07,0
					c-0.02-0.02-0.06-0.03-0.1-0.03l-0.03-0.03h-0.07c-0.02-0.02-0.05-0.04-0.08-0.07c-0.03-0.02-0.1-0.07-0.18-0.13
					c-0.02-0.02-0.06-0.08-0.1-0.17c-0.11-0.18-0.18-0.39-0.2-0.64c0-0.16,0.01-0.33,0.03-0.5c0.07-0.47,0.22-1.05,0.47-1.75
					c0.16-0.45,0.37-0.97,0.64-1.58c0.09-0.22,0.2-0.48,0.34-0.77l0.1-0.24c-0.16,0.07-0.25,0.11-0.27,0.13l-1.08,0.4l-2.15,0.81
					c-0.81,0.31-1.69,0.66-2.65,1.04c0.22,0.74,0.28,1.52,0.17,2.35c-0.05,0.34-0.12,0.74-0.24,1.21c-0.13,0.47-0.26,0.86-0.37,1.18
					c-0.27,0.72-0.63,1.43-1.07,2.15c-0.4,0.65-0.87,1.29-1.41,1.92c-0.96,1.1-2.13,2.16-3.49,3.19c-2.26,1.68-4.97,3.17-8.13,4.47
					c-1.48,0.6-2.93,1.12-4.37,1.55c-0.83,0.25-1.58,0.44-2.25,0.57c-0.45,0.09-0.84,0.16-1.18,0.2c-0.43,0.04-0.83,0.08-1.21,0.1
					c-0.9,0.02-1.7-0.06-2.42-0.24c-0.47-0.11-0.89-0.27-1.24-0.47c-0.2-0.13-0.38-0.28-0.54-0.44c-0.2-0.18-0.36-0.38-0.47-0.6
					c-0.11-0.25-0.17-0.5-0.17-0.77c0-0.22,0.03-0.46,0.1-0.71c0.09-0.38,0.26-0.77,0.5-1.18c0.36-0.58,0.87-1.2,1.55-1.85
					c0.96-0.9,2.19-1.84,3.7-2.82c1.16-0.74,2.5-1.5,4-2.28c2.19-1.19,4.95-2.51,8.26-3.96c2.53-1.1,5.35-2.26,8.47-3.49
					c0.04,0,0.11-0.02,0.2-0.05c0.09-0.03,0.15-0.06,0.17-0.08c-0.18-0.52-0.47-1-0.87-1.45c-0.4-0.49-0.93-0.95-1.58-1.38
					c-0.99-0.65-2.31-1.29-3.96-1.92c-1.05-0.4-2.49-0.86-4.3-1.38c-2.31-0.69-3.77-1.14-4.4-1.34c-0.87-0.31-1.6-0.62-2.18-0.91
					c-0.43-0.2-0.78-0.4-1.07-0.61c-0.43-0.29-0.76-0.59-1.01-0.91c-0.16-0.22-0.28-0.45-0.37-0.67c-0.07-0.13-0.11-0.26-0.13-0.37
					c-0.02-0.11-0.03-0.24-0.03-0.37c-0.02-0.45,0.06-0.92,0.24-1.41c0.25-0.67,0.68-1.38,1.31-2.12c0.47-0.54,1.03-1.1,1.68-1.68
					c0.54-0.49,1.15-0.99,1.85-1.48c1.14-0.85,2.43-1.7,3.86-2.55c1.28-0.76,2.62-1.5,4.03-2.22c1.41-0.69,2.81-1.33,4.2-1.91
					c1.55-0.65,2.99-1.19,4.33-1.61c1.72-0.54,3.25-0.88,4.57-1.04c0.96-0.09,1.78-0.08,2.45,0.03c0.25,0.05,0.47,0.11,0.67,0.2
					c0.25,0.11,0.46,0.26,0.64,0.44c0.2,0.22,0.34,0.47,0.4,0.74c0.04,0.22,0.06,0.47,0.03,0.74c-0.04,0.36-0.16,0.77-0.34,1.24
					c-0.11,0.34-0.27,0.71-0.47,1.11c-0.02,0.05-0.16,0.33-0.4,0.86c-0.25,0.53-0.43,0.92-0.54,1.19c-0.36,0.78-0.6,1.48-0.74,2.08
					c-0.2,0.76-0.24,1.43-0.1,2.02c0.04,0.18,0.02,0.34-0.08,0.49c-0.1,0.15-0.24,0.24-0.4,0.27c-0.17,0.03-0.33,0.01-0.49-0.08
					s-0.25-0.22-0.27-0.4c-0.02-0.02-0.03-0.04-0.03-0.07c-0.07-0.76,0.03-1.6,0.3-2.52c0.18-0.6,0.47-1.33,0.87-2.18
					c0.11-0.25,0.27-0.6,0.49-1.06c0.21-0.46,0.38-0.8,0.49-1.02c0.2-0.43,0.35-0.76,0.44-1.01c0.13-0.4,0.21-0.73,0.24-0.97
					c0.02-0.16,0.02-0.29-0.02-0.4c-0.03-0.11-0.08-0.2-0.15-0.27c-0.13-0.13-0.38-0.24-0.74-0.3c-0.56-0.09-1.27-0.07-2.12,0.07
					c-0.65,0.09-1.37,0.24-2.15,0.44c-0.67,0.18-1.39,0.39-2.15,0.64c-2.69,0.87-5.47,2.04-8.33,3.49
					c-1.39,0.69-2.71,1.42-3.96,2.18c-1.39,0.83-2.64,1.66-3.76,2.49c-0.65,0.47-1.23,0.93-1.75,1.38c-0.6,0.56-1.11,1.09-1.51,1.58
					c-0.54,0.63-0.91,1.2-1.11,1.71c-0.11,0.31-0.16,0.59-0.13,0.84c0,0.13,0.02,0.26,0.07,0.37c0.04,0.11,0.11,0.22,0.2,0.34
					c0.16,0.2,0.38,0.4,0.67,0.61c0.27,0.18,0.57,0.35,0.91,0.5c0.54,0.27,1.22,0.54,2.05,0.81c0.6,0.22,2.06,0.67,4.37,1.34
					c1.84,0.54,3.29,1,4.37,1.38c1.75,0.65,3.17,1.34,4.27,2.08c0.74,0.52,1.36,1.05,1.85,1.61c0.49,0.58,0.86,1.2,1.11,1.85
					c0.94-0.36,1.81-0.69,2.62-1.01l2.15-0.81l1.04-0.4c0.51-0.2,0.86-0.35,1.04-0.44h0.03c0.02,0,0.04-0.01,0.07-0.03
					c0.16-0.04,0.31-0.03,0.47,0.03c0.16,0.07,0.27,0.19,0.34,0.35c0.07,0.17,0.07,0.33,0,0.49l-0.03,0.03
					c-0.02,0.07-0.09,0.2-0.2,0.4l-0.2,0.37c-0.13,0.27-0.26,0.5-0.37,0.71c-0.27,0.56-0.5,1.05-0.71,1.48
					c-0.25,0.61-0.4,1.1-0.47,1.48c-0.02,0.13-0.03,0.25-0.03,0.34c0,0.04,0,0.09,0,0.13c0.04-0.02,0.09-0.04,0.13-0.07
					c0.16-0.07,0.37-0.19,0.64-0.37c0.22-0.13,0.45-0.29,0.67-0.47c0.4-0.29,0.84-0.63,1.31-1.01c0.45-0.36,0.87-0.72,1.28-1.07
					c0.22-0.2,0.43-0.39,0.6-0.57c0.25-0.25,0.44-0.44,0.57-0.57C324.76,30.92,324.9,30.91,325.03,31.05z M312.67,34.84
					c0.07-0.6,0.03-1.18-0.1-1.71c-0.02,0.02-0.07,0.04-0.13,0.07c-0.09,0.04-0.16,0.07-0.2,0.07c-3.07,1.23-5.87,2.42-8.4,3.56
					c-3.02,1.34-5.75,2.68-8.16,4c-1.48,0.81-2.78,1.59-3.9,2.35c-0.69,0.45-1.31,0.87-1.85,1.28c-0.67,0.54-1.23,1.03-1.68,1.48
					c-0.58,0.58-1.03,1.14-1.34,1.68c-0.18,0.34-0.3,0.65-0.37,0.94c-0.07,0.29-0.03,0.55,0.1,0.77c0.09,0.2,0.28,0.37,0.57,0.5
					c0.25,0.13,0.56,0.24,0.94,0.3c0.58,0.11,1.29,0.16,2.12,0.13c0.36-0.02,0.72-0.06,1.07-0.1c0.31-0.04,0.67-0.11,1.08-0.2
					c0.63-0.13,1.34-0.31,2.15-0.54c1.39-0.4,2.8-0.91,4.23-1.51c3.05-1.25,5.67-2.7,7.86-4.33c1.28-0.96,2.35-1.96,3.22-2.99
					c0.49-0.56,0.93-1.14,1.31-1.75c0.4-0.65,0.72-1.29,0.94-1.92c0.11-0.27,0.22-0.62,0.34-1.04
					C312.56,35.48,312.62,35.13,312.67,34.84z M322.01,26.83c0.18-0.03,0.34,0,0.49,0.1s0.24,0.24,0.27,0.4
					c0.03,0.17,0.01,0.33-0.08,0.49c-0.2,0.29-0.37,0.58-0.5,0.87c-0.11,0.25-0.3,0.37-0.57,0.37c-0.09,0-0.18-0.01-0.27-0.03
					c-0.16-0.07-0.27-0.18-0.34-0.35s-0.07-0.33,0-0.49c0.16-0.36,0.36-0.72,0.61-1.07C321.7,26.96,321.83,26.86,322.01,26.83z"/>
				<path d="M335.18,31.21c0.02,0.18-0.06,0.28-0.24,0.3h-0.07c-0.09,0.02-0.19,0.07-0.3,0.13c-0.13,0.04-0.26,0.1-0.37,0.17
					c-0.22,0.09-0.47,0.21-0.74,0.37c-0.49,0.27-0.97,0.56-1.45,0.87c-0.9,0.56-1.81,1.21-2.76,1.95c-0.09,0.07-0.24,0.18-0.44,0.34
					c-0.16,0.54-0.3,1.02-0.44,1.44c-0.4,1.3-0.77,2.39-1.11,3.26c-0.45,1.23-0.89,2.3-1.31,3.19c-0.27,0.56-0.55,1.09-0.84,1.58
					c-0.16,0.29-0.31,0.54-0.47,0.74c0,0.02-0.04,0.08-0.12,0.17c-0.08,0.09-0.14,0.16-0.19,0.2c-0.16,0.2-0.26,0.32-0.3,0.37
					c-0.27,0.27-0.56,0.47-0.87,0.6c-0.4,0.18-0.78,0.24-1.14,0.17c-0.45-0.04-0.81-0.25-1.07-0.6c-0.25-0.31-0.37-0.68-0.37-1.11
					v-0.24c0-0.05,0.01-0.09,0.03-0.13v-0.1l0.1-0.47l0.1-0.44c0.02-0.11,0.04-0.19,0.07-0.24l0.07-0.2c0-0.02,0.02-0.08,0.07-0.19
					c0.05-0.1,0.08-0.18,0.1-0.25l0.17-0.4l0.1-0.2l0.1-0.2l0.2-0.37c0.52-0.9,1.2-1.84,2.05-2.82c0.69-0.76,1.51-1.57,2.45-2.42
					c0.38-0.34,0.78-0.68,1.21-1.04c0.31-0.92,0.57-1.74,0.77-2.45c0.04-0.11,0.12-0.36,0.24-0.74c0.11-0.38,0.2-0.68,0.27-0.91
					c0.04-0.11,0.1-0.29,0.17-0.54c-0.11,0.11-0.22,0.22-0.34,0.34c-0.13,0.16-0.33,0.37-0.59,0.65c-0.26,0.28-0.44,0.48-0.55,0.59
					c-0.54,0.56-0.97,0.96-1.31,1.21c-0.16,0.11-0.3,0.2-0.44,0.27c-0.11,0.04-0.2,0.08-0.27,0.1c-0.13,0.04-0.27,0.06-0.4,0.03
					c-0.31-0.04-0.54-0.22-0.67-0.54c-0.09-0.2-0.11-0.43-0.07-0.67c0.02-0.27,0.11-0.59,0.27-0.97c0.09-0.25,0.22-0.53,0.4-0.84
					c0.31-0.54,0.66-1.02,1.04-1.45c0.22-0.25,0.44-0.46,0.64-0.64c0.27-0.22,0.54-0.41,0.81-0.57c0.2-0.11,0.38-0.18,0.54-0.2
					c0.04,0,0.1-0.01,0.17-0.03c0.04,0,0.08,0,0.1,0c0.04,0,0.08,0,0.1,0c0.18,0.02,0.34,0.09,0.47,0.2
					c0.11,0.11,0.19,0.24,0.24,0.37c0.02,0.11,0.03,0.24,0.03,0.37c-0.02,0.18-0.08,0.35-0.17,0.5c-0.09,0.18-0.22,0.22-0.4,0.13
					c-0.09-0.07-0.13-0.15-0.13-0.24V29.6c-0.02-0.16-0.04-0.27-0.07-0.34c-0.02-0.04-0.04-0.07-0.07-0.07v0.03
					c0,0.02,0.02,0.04,0.07,0.07l-0.03,0.03c-0.05,0.02-0.12,0.08-0.24,0.17c-0.13,0.11-0.31,0.28-0.54,0.5
					c-0.2,0.2-0.38,0.39-0.54,0.57c-0.2,0.25-0.37,0.46-0.5,0.64c-0.27,0.34-0.44,0.55-0.5,0.64c-0.16,0.2-0.29,0.41-0.4,0.64
					c-0.16,0.27-0.26,0.48-0.3,0.64c0,0.04,0,0.1,0,0.17c0.02,0,0.04-0.01,0.07-0.03c0.11-0.02,0.22-0.08,0.34-0.17
					c0.31-0.2,0.73-0.54,1.24-1.01c0.36-0.36,0.75-0.76,1.18-1.21l0.6-0.64c0.18-0.2,0.28-0.31,0.3-0.34
					c0.09-0.07,0.17-0.12,0.24-0.17c0.07-0.04,0.12-0.08,0.17-0.1c0.04,0,0.08,0,0.1,0c0.02-0.02,0.06-0.03,0.1-0.03
					c0.07,0.02,0.12,0.04,0.17,0.07c0.07,0.02,0.12,0.06,0.17,0.1c0.04,0.04,0.08,0.09,0.1,0.13c0,0.04,0.01,0.08,0.03,0.1
					c0,0.02,0,0.07,0,0.13c0,0.04,0,0.11,0,0.2l-0.03,0.24L329.91,31c-0.04,0.29-0.1,0.57-0.17,0.84c-0.07,0.31-0.2,0.86-0.4,1.65
					c-0.09,0.29-0.17,0.58-0.24,0.87c0.87-0.65,1.75-1.24,2.62-1.78c0.47-0.31,0.95-0.62,1.44-0.91c0.29-0.16,0.55-0.29,0.77-0.4
					c0.13-0.04,0.27-0.1,0.4-0.17c0.2-0.09,0.37-0.13,0.5-0.13C335.02,30.93,335.13,31.01,335.18,31.21z M324.76,42.7
					c0.69-1.52,1.44-3.47,2.25-5.85c-1.03,0.92-1.93,1.84-2.69,2.76c-0.81,0.94-1.44,1.84-1.91,2.69l-0.17,0.37l-0.1,0.2l-0.07,0.17
					l-0.17,0.4c0,0.02-0.04,0.15-0.13,0.37l-0.03,0.2c-0.02,0.02-0.03,0.06-0.03,0.1l-0.03,0.07l-0.07,0.4l-0.03,0.4l-0.03,0.07
					c0,0.04,0,0.08,0,0.1v0.17c0.04,0.2,0.12,0.36,0.24,0.47c0.09,0.11,0.21,0.17,0.37,0.19c0.16,0.01,0.33-0.04,0.5-0.15
					c0.2-0.11,0.37-0.25,0.5-0.4l0.24-0.27c0.02-0.04,0.06-0.11,0.12-0.18c0.06-0.08,0.1-0.12,0.12-0.12
					c0.16-0.27,0.29-0.5,0.4-0.71C324.29,43.7,324.54,43.22,324.76,42.7z M325.17,33.3h-0.03H325.17z"/>
				<path d="M342.77,31.05c0.11,0.11,0.12,0.24,0.03,0.37c-0.31,0.56-0.61,1.04-0.87,1.44c-0.4,0.61-0.75,1.09-1.04,1.45
					c-0.11,0.11-0.22,0.22-0.34,0.34c-0.16,0.13-0.3,0.24-0.44,0.3c-0.11,0.07-0.21,0.11-0.3,0.13s-0.18,0.03-0.27,0.03
					s-0.17-0.02-0.24-0.07c-0.16-0.04-0.29-0.13-0.4-0.27c-0.07-0.07-0.13-0.16-0.2-0.27c-0.07-0.2-0.16-0.52-0.27-0.94
					c-0.09-0.36-0.16-0.6-0.2-0.74c-0.04-0.11-0.09-0.19-0.13-0.24l-0.03-0.03h-0.03c-0.09,0.02-0.18,0.06-0.27,0.1
					c-0.16,0.11-0.35,0.27-0.57,0.47c-0.18,0.18-0.37,0.37-0.57,0.57c-0.36,0.4-0.72,0.85-1.08,1.34c-0.13,0.18-0.29,0.41-0.47,0.71
					c-0.27,0.4-0.45,0.66-0.54,0.77v0.03c-0.13,0.11-0.29,0.16-0.47,0.15s-0.32-0.08-0.44-0.22c-0.16-0.16-0.2-0.35-0.13-0.57
					l0.03-0.13v-0.1l0.07-0.2l0.13-0.4l0.24-0.81l0.47-1.58l0.4-1.31c-0.11,0-0.2-0.04-0.27-0.13c-0.11-0.13-0.12-0.27-0.03-0.4
					c0.07-0.13,0.15-0.28,0.24-0.44c0.09-0.11,0.18-0.24,0.27-0.37l0.27-0.4c0.11-0.16,0.21-0.28,0.3-0.37
					c0.11-0.13,0.25-0.21,0.42-0.24c0.17-0.02,0.31,0.02,0.42,0.13c0.2,0.16,0.28,0.35,0.24,0.57l-0.03,0.2
					c-0.11,0.31-0.28,0.83-0.5,1.55l-0.47,1.58l-0.2,0.67c0.22-0.31,0.37-0.52,0.44-0.6c0.22-0.27,0.4-0.49,0.54-0.67
					c0.25-0.29,0.47-0.52,0.67-0.67c0.18-0.13,0.35-0.24,0.5-0.3c0.13-0.04,0.26-0.07,0.37-0.07c0.07-0.02,0.13-0.03,0.2-0.02
					s0.13,0.03,0.2,0.05c0.13,0.04,0.26,0.11,0.37,0.2c0.09,0.07,0.18,0.16,0.27,0.27c0.09,0.13,0.18,0.3,0.27,0.5
					c0.04,0.18,0.11,0.48,0.2,0.91c0.04,0.18,0.07,0.31,0.07,0.4c0.04,0.13,0.08,0.24,0.1,0.3c0.07-0.04,0.15-0.1,0.24-0.15
					c0.09-0.06,0.18-0.14,0.27-0.25c0.31-0.29,0.68-0.71,1.11-1.24c0.16-0.18,0.32-0.39,0.5-0.64c0.25-0.29,0.44-0.52,0.57-0.67
					C342.48,30.92,342.62,30.91,342.77,31.05z"/>
				<path d="M362.53,20.33c0.11,0.02,0.21,0.09,0.29,0.2c0.08,0.11,0.11,0.24,0.08,0.37c-0.04,0.25-0.19,0.37-0.44,0.37
					c-0.2,0-0.42,0.01-0.66,0.02s-0.45,0.02-0.66,0.02c-0.25,0.02-0.46,0.04-0.64,0.07c-0.11,0.02-0.21,0.03-0.3,0.03
					c-0.04,0.02-0.09,0.03-0.13,0.03h-0.03c-0.2,0.16-0.37,0.13-0.5-0.07c-0.09-0.11-0.1-0.24-0.03-0.37
					c-0.72-0.04-1.46-0.06-2.22-0.03c-0.05,0-0.12,0-0.22,0s-0.17,0-0.22,0c-0.45,1.16-0.74,1.92-0.87,2.25
					c-0.94,2.46-1.79,4.76-2.55,6.89c-0.94,2.67-1.73,4.97-2.35,6.92c-0.43,1.37-0.76,2.54-1.01,3.53
					c-0.13,0.45-0.21,0.74-0.24,0.87l-0.1,0.44l-0.1,0.44c-0.02,0.11-0.07,0.41-0.13,0.91l-0.03,0.44c0,0.02,0,0.09,0,0.2
					s0,0.18,0,0.2v0.03c0,0.2-0.1,0.3-0.3,0.3c-0.16,0-0.25-0.09-0.27-0.27c-0.04-0.43,0-1.06,0.13-1.92l0.1-0.44l0.07-0.47
					c0.04-0.13,0.11-0.44,0.2-0.91c0.25-1.01,0.57-2.2,0.97-3.56c0.56-1.97,1.29-4.31,2.18-7.02c0.72-2.13,1.51-4.45,2.39-6.95
					c0.07-0.18,0.16-0.44,0.29-0.79c0.12-0.35,0.21-0.56,0.25-0.65c-0.13,0.22-0.24,0.37-0.3,0.44l-1.65,2.72
					c-0.56,0.94-1.11,1.84-1.65,2.69c-0.67,1.05-1.25,1.95-1.75,2.69c-0.65,0.99-1.27,1.86-1.85,2.62
					c-0.43,0.56-0.78,0.97-1.08,1.24c-0.13,0.11-0.26,0.21-0.37,0.3c-0.09,0.07-0.18,0.11-0.27,0.13c-0.05,0.02-0.09,0.03-0.13,0.03
					h-0.03l-0.03,0.03h-0.13c-0.11,0-0.22-0.01-0.34-0.03c-0.13-0.04-0.25-0.1-0.34-0.17s-0.17-0.16-0.24-0.27
					c-0.07-0.09-0.11-0.19-0.13-0.3c-0.07-0.25-0.08-0.57-0.03-0.97c0-0.02,0.01-0.1,0.03-0.24c-0.16,0.22-0.31,0.43-0.47,0.61
					c-0.38,0.49-0.71,0.87-0.97,1.14c-0.22,0.25-0.43,0.44-0.61,0.57c-0.11,0.11-0.24,0.2-0.37,0.27c-0.2,0.11-0.4,0.18-0.6,0.2
					h-0.03l-0.2-0.03c-0.13-0.09-0.25-0.18-0.34-0.27c-0.11-0.09-0.2-0.21-0.27-0.37c-0.07-0.2-0.1-0.43-0.1-0.67
					c0.02-0.29,0.1-0.62,0.24-0.97c0.18-0.47,0.45-0.99,0.81-1.55c0.63-0.96,1.37-1.83,2.22-2.59c0.49-0.45,0.96-0.79,1.41-1.04
					c0.36-0.18,0.68-0.28,0.97-0.3c0.09-0.02,0.19-0.03,0.3-0.03c0.02,0,0.08,0.01,0.17,0.03h0.03c0.02,0,0.04,0.01,0.07,0.03
					c0.07,0.02,0.11,0.04,0.13,0.07c0.16,0.07,0.28,0.19,0.37,0.37c0.04,0.13,0.07,0.26,0.07,0.37c0.02,0.13,0.02,0.3,0,0.5
					c-0.02,0.13-0.06,0.29-0.1,0.47c-0.07,0.25-0.16,0.52-0.27,0.81c-0.09,0.25-0.19,0.5-0.3,0.77c-0.07,0.13-0.13,0.27-0.2,0.4
					c-0.07,0.16-0.13,0.29-0.2,0.4c-0.16,0.25-0.36,0.29-0.6,0.13c-0.02-0.02-0.03-0.04-0.03-0.07c-0.04,0.13-0.08,0.26-0.1,0.37
					c-0.07,0.27-0.11,0.51-0.13,0.74c-0.02,0.27-0.02,0.47,0,0.6c0.02,0,0.03,0.02,0.03,0.07c0.02,0,0.06,0,0.1,0h0.03h0.03
					l0.07-0.03c0.07-0.04,0.15-0.11,0.24-0.2c0.27-0.25,0.6-0.63,1.01-1.14c0.45-0.54,1.07-1.38,1.88-2.52
					c0.58-0.85,1.18-1.72,1.78-2.62c0.56-0.85,1.13-1.74,1.71-2.65c0.58-0.94,1.13-1.84,1.65-2.69c0-0.02,0.09-0.19,0.27-0.5
					c-0.9,0.04-1.78,0.11-2.65,0.2c-1.75,0.13-3.44,0.34-5.07,0.61c-1.81,0.31-3.47,0.67-4.97,1.07c-0.16,0.04-0.31,0.03-0.47-0.05
					s-0.26-0.21-0.3-0.39c-0.04-0.18-0.02-0.35,0.07-0.5c0.09-0.16,0.21-0.26,0.37-0.3c1.57-0.4,3.28-0.74,5.14-1.01
					c1.66-0.25,3.37-0.43,5.14-0.54c1.12-0.09,2.25-0.15,3.39-0.17c0.27-0.45,0.48-0.84,0.64-1.18c0.27-0.49,0.52-0.96,0.74-1.41
					c0.11-0.25,0.21-0.49,0.3-0.74c0-0.02,0.02-0.07,0.07-0.13c0.02-0.07,0.06-0.16,0.1-0.27s0.08-0.2,0.1-0.27v-0.03l0.03-0.03
					c0.07-0.16,0.19-0.26,0.35-0.32c0.17-0.06,0.33-0.04,0.49,0.05c0.36,0.18,0.46,0.45,0.3,0.81c-0.45,1.16-0.91,2.34-1.38,3.53
					c0.02,0,0.04,0,0.07,0c0.92,0.02,1.78,0.06,2.59,0.1C360.88,20.1,361.74,20.2,362.53,20.33L362.53,20.33z M342.27,33.83
					c-0.02,0.02-0.02,0.04,0,0.05s0.06,0.02,0.1,0.02c0.02,0,0.06,0,0.1,0L342.27,33.83z M344.59,31.85c0.16-0.2,0.29-0.39,0.4-0.57
					c0.11-0.16,0.26-0.36,0.44-0.61l0.2-0.3l0.1-0.17c0.04-0.07,0.09-0.12,0.13-0.17V30c0.18-0.2,0.38-0.21,0.6-0.03
					c0.04,0.05,0.08,0.1,0.1,0.17c0.07-0.18,0.12-0.35,0.17-0.5c0.09-0.27,0.16-0.52,0.2-0.74c0.04-0.13,0.07-0.25,0.07-0.34
					s0-0.16,0-0.2c-0.16,0.02-0.35,0.1-0.57,0.24c-0.34,0.18-0.73,0.48-1.18,0.91c-0.69,0.69-1.33,1.5-1.91,2.42
					c-0.31,0.47-0.54,0.91-0.67,1.31c-0.09,0.22-0.13,0.42-0.13,0.6c-0.02,0-0.02,0.01,0,0.03c0.04-0.02,0.08-0.03,0.1-0.03
					c0.16-0.07,0.34-0.19,0.54-0.37c0.31-0.29,0.63-0.64,0.94-1.04C344.27,32.24,344.43,32.05,344.59,31.85z"/>
				<path d="M365.63,31.15c0.08,0.18,0.04,0.3-0.12,0.37h-0.03c-0.18,0.07-0.39,0.18-0.64,0.34c-0.18,0.13-0.38,0.28-0.61,0.44
					c-0.18,0.16-0.37,0.32-0.57,0.5c-0.18,0.18-0.36,0.35-0.54,0.5c-0.09,0.09-0.21,0.21-0.35,0.35c-0.15,0.15-0.28,0.28-0.4,0.4
					c-0.12,0.12-0.24,0.23-0.35,0.32c-0.27,0.27-0.47,0.45-0.61,0.54c-0.13,0.11-0.25,0.2-0.34,0.27c-0.16,0.09-0.3,0.16-0.44,0.2
					l-0.07,0.03h-0.1c-0.02,0-0.04,0-0.07,0c-0.04,0-0.08,0-0.1,0c-0.07-0.02-0.13-0.04-0.2-0.07c-0.04-0.02-0.09-0.05-0.13-0.07
					c-0.04-0.04-0.1-0.09-0.17-0.13c-0.02-0.04-0.06-0.09-0.1-0.13c-0.02-0.04-0.04-0.1-0.07-0.17l-0.03-0.07l-0.03-0.07
					c-0.04-0.13-0.07-0.3-0.07-0.5c0-0.11,0.01-0.27,0.03-0.47c0.04-0.34,0.15-0.73,0.3-1.18l-0.57,0.64
					c-0.72,0.83-1.21,1.39-1.48,1.68c-0.29,0.29-0.56,0.55-0.81,0.77c-0.36,0.34-0.68,0.57-0.97,0.71
					c-0.13,0.07-0.25,0.11-0.34,0.13c-0.18,0.04-0.35,0.04-0.5,0c-0.2-0.07-0.37-0.19-0.5-0.37c-0.07-0.11-0.12-0.25-0.17-0.4
					c-0.04-0.2-0.06-0.44-0.03-0.71c0.02-0.18,0.06-0.38,0.1-0.6c0.07-0.34,0.18-0.71,0.34-1.11c0.11-0.34,0.25-0.68,0.4-1.04
					c0.25-0.63,0.55-1.31,0.91-2.05c0.2-0.38,0.37-0.71,0.5-0.97c0.11-0.18,0.21-0.35,0.3-0.5c0.04-0.09,0.09-0.17,0.13-0.24
					l0.1-0.13l0.03-0.07l0.03-0.07l0.07-0.03c0.11-0.13,0.26-0.21,0.44-0.24c0.18-0.02,0.34,0.03,0.47,0.15
					c0.13,0.12,0.21,0.27,0.22,0.45s-0.05,0.34-0.19,0.47l0.03-0.03l-0.03,0.03v0.03l-0.07,0.1l-0.13,0.24
					c-0.09,0.13-0.18,0.28-0.27,0.44c-0.2,0.36-0.37,0.67-0.5,0.94c-0.36,0.67-0.67,1.32-0.94,1.95c-0.34,0.69-0.59,1.34-0.77,1.95
					c-0.04,0.18-0.08,0.34-0.1,0.47c-0.04,0.16-0.07,0.29-0.07,0.4l0.03,0.03c0.02,0,0.07-0.01,0.13-0.03
					c0.22-0.09,0.5-0.27,0.84-0.54c0.25-0.18,0.5-0.4,0.77-0.67c0.54-0.52,1.04-1.04,1.51-1.58c0.47-0.52,0.93-1.08,1.38-1.68
					c0.22-0.29,0.43-0.59,0.6-0.91c0.09-0.16,0.18-0.3,0.27-0.44c0.11-0.25,0.18-0.38,0.2-0.4c0.02-0.04,0.04-0.09,0.07-0.13
					c0.09-0.16,0.21-0.26,0.37-0.32s0.31-0.04,0.47,0.05c0.27,0.13,0.37,0.35,0.3,0.64l-0.07,0.3c-0.11,0.29-0.32,0.74-0.62,1.34
					c-0.3,0.61-0.52,1.08-0.65,1.41c-0.22,0.49-0.39,0.94-0.5,1.34c-0.02,0.09-0.04,0.19-0.07,0.3c-0.02,0.09-0.03,0.17-0.03,0.24
					v0.1v0.03h-0.03h0.03h0.03c0.04,0,0.12-0.02,0.24-0.07c0.07-0.05,0.17-0.1,0.3-0.17c0.2-0.11,0.4-0.26,0.6-0.44
					c0.31-0.27,0.69-0.6,1.14-1.01l0.57-0.54c0.2-0.18,0.39-0.35,0.57-0.5c0.25-0.2,0.46-0.37,0.64-0.5
					c0.25-0.18,0.48-0.31,0.71-0.4C365.44,30.92,365.56,30.97,365.63,31.15z M355.47,35.58h-0.03H355.47z"/>
				<path d="M372.17,30.99c0.18,0.08,0.22,0.2,0.13,0.35v0.03c-0.31,0.63-0.64,1.21-0.97,1.75c-0.36,0.58-0.73,1.13-1.11,1.65
					c-0.9,1.21-1.78,2.21-2.65,2.99c-0.6,0.51-1.16,0.92-1.68,1.21c-0.36,0.2-0.69,0.35-1.01,0.44c-0.11,0.02-0.21,0.04-0.3,0.07
					h-0.07c-0.07,0-0.11,0-0.13,0c-0.07,0-0.13-0.01-0.2-0.03c-0.22-0.04-0.39-0.15-0.5-0.3c-0.11-0.13-0.18-0.3-0.2-0.5
					c-0.02-0.18,0-0.4,0.07-0.67c0.05-0.18,0.1-0.36,0.17-0.54c0.11-0.36,0.25-0.68,0.4-0.97c0.2-0.38,0.53-0.96,0.97-1.75
					c0.09-0.13,0.2-0.31,0.34-0.54c0.13-0.22,0.26-0.43,0.37-0.62s0.21-0.36,0.3-0.52c0.2-0.34,0.36-0.62,0.47-0.84
					c0-0.02,0.01-0.04,0.03-0.07V32.1h-0.1c-0.45-0.09-0.83-0.2-1.14-0.34c-0.22-0.09-0.43-0.21-0.6-0.37
					c-0.2-0.18-0.36-0.4-0.47-0.67c-0.09-0.25-0.11-0.5-0.07-0.77c0-0.09,0.01-0.15,0.03-0.17v-0.13c0.02-0.13,0.05-0.22,0.07-0.27
					c0.16-0.69,0.46-1.37,0.91-2.02c0.4-0.63,0.9-1.14,1.48-1.55c0.04-0.04,0.11-0.1,0.2-0.17c0.11-0.07,0.2-0.12,0.27-0.17
					c0.18-0.09,0.37-0.17,0.57-0.24c0.25-0.04,0.47-0.07,0.67-0.07c0.27,0.02,0.49,0.09,0.67,0.2c0.11,0.07,0.22,0.16,0.34,0.27
					c0.09,0.11,0.16,0.21,0.2,0.3c0.09,0.22,0.13,0.46,0.13,0.71c-0.02,0.34-0.13,0.72-0.34,1.14l-0.03,0.03
					c-0.27,0.4-0.55,0.76-0.84,1.07c-0.27,0.29-0.6,0.59-1.01,0.91c-0.29,0.25-0.65,0.5-1.07,0.77l-0.07,0.07
					c0.11,0.02,0.2,0.04,0.27,0.07c0.13,0,0.29,0.01,0.47,0.03l0.24,0.03h0.03c0.04,0,0.09,0,0.13,0c0.11,0.02,0.21,0.07,0.3,0.13
					c0.11,0.09,0.2,0.19,0.27,0.3c0.02,0.09,0.04,0.18,0.07,0.27c0.02,0.11,0.02,0.22,0,0.34c-0.02,0.07-0.04,0.13-0.07,0.2
					c-0.02,0.09-0.06,0.19-0.1,0.3c-0.04,0.16-0.12,0.32-0.24,0.5c-0.11,0.25-0.28,0.55-0.5,0.91c-0.09,0.16-0.2,0.33-0.32,0.52
					s-0.26,0.4-0.4,0.62c-0.15,0.22-0.25,0.39-0.32,0.5c-0.38,0.6-0.72,1.16-1.01,1.68c-0.22,0.4-0.37,0.67-0.44,0.81
					c-0.07,0.16-0.12,0.29-0.17,0.4c-0.02,0.07-0.03,0.13-0.03,0.2c0.04,0,0.08,0,0.1,0c0.25-0.05,0.53-0.12,0.84-0.24
					c0.49-0.22,1.02-0.56,1.58-1.01c0.94-0.76,1.83-1.69,2.65-2.79c0.43-0.56,0.79-1.1,1.11-1.61c0.4-0.63,0.72-1.2,0.94-1.71
					C371.87,30.96,371.99,30.92,372.17,30.99z M364.44,38.47h0.03h-0.07H364.44z M365.55,29.97v0.1v0.03
					c0.22-0.13,0.37-0.22,0.44-0.27c0.38-0.22,0.73-0.46,1.04-0.71c0.34-0.27,0.64-0.54,0.91-0.81c0.29-0.34,0.53-0.65,0.71-0.94
					c0.07-0.16,0.11-0.29,0.13-0.4c0.04-0.11,0.07-0.22,0.07-0.34c-0.02-0.11-0.04-0.2-0.07-0.27c-0.04-0.04-0.1-0.09-0.17-0.13
					c-0.16-0.07-0.35-0.06-0.57,0.03c-0.09,0.04-0.19,0.1-0.3,0.17c-0.05,0.02-0.09,0.06-0.13,0.1c-0.07,0.07-0.12,0.11-0.17,0.13
					c-0.45,0.45-0.83,0.92-1.14,1.41c-0.34,0.52-0.56,1.04-0.67,1.58c0,0.02-0.01,0.09-0.03,0.2L365.55,29.97z"/>
				<path d="M372.07,31.31c0.38-0.07,0.76-0.22,1.14-0.47c0.36-0.22,0.68-0.49,0.97-0.81c0.29-0.29,0.56-0.62,0.81-0.97
					c0.11-0.18,0.22-0.36,0.34-0.54c0.02-0.07,0.07-0.17,0.13-0.3l0.03-0.1l0.03-0.13l0.03-0.03c0.02-0.11,0.02-0.21,0-0.3
					c-0.05-0.07-0.09-0.1-0.13-0.1s-0.09,0.01-0.13,0.03c-0.11,0.02-0.21,0.08-0.3,0.17c-0.02,0-0.06,0.02-0.1,0.07
					c-0.02,0.02-0.04,0.04-0.07,0.07c-0.09,0.09-0.15,0.15-0.17,0.17c-0.02,0.02-0.15,0.16-0.37,0.4c-0.22,0.27-0.46,0.56-0.71,0.87
					c-0.47,0.61-0.89,1.22-1.24,1.85c-0.18,0.36-0.34,0.69-0.47,1.01c-0.16,0.36-0.26,0.68-0.3,0.97c-0.02,0.04-0.03,0.12-0.03,0.24
					c0,0.04-0.01,0.12-0.03,0.24l0.03,0.1c0,0.04,0,0.08,0,0.1l0.03,0.1l0.03,0.1v0.03l0.03,0.07l0.03,0.07
					c0.07,0.07,0.1,0.11,0.1,0.13l0.1,0.07l0.07,0.03l0.03,0.03c0.02,0,0.03,0.01,0.03,0.03h0.07c0.09,0.04,0.22,0.06,0.4,0.03
					c0.13-0.02,0.29-0.07,0.47-0.13c0.29-0.11,0.62-0.27,0.97-0.47c0.56-0.34,1.19-0.77,1.88-1.31c0.56-0.45,1.14-0.95,1.75-1.51
					c0.13-0.13,0.27-0.12,0.4,0.03c0.11,0.13,0.11,0.26,0,0.37c-0.6,0.63-1.18,1.18-1.71,1.65c-0.67,0.6-1.3,1.1-1.88,1.48
					c-0.4,0.25-0.76,0.44-1.07,0.57c-0.25,0.11-0.46,0.18-0.64,0.2c-0.29,0.07-0.55,0.08-0.77,0.03c-0.11-0.02-0.19-0.04-0.24-0.07
					c-0.04-0.02-0.08-0.03-0.1-0.03l-0.07-0.07l-0.17-0.07c-0.02-0.02-0.08-0.07-0.17-0.13c-0.02-0.02-0.11-0.12-0.27-0.3
					c-0.02-0.02-0.06-0.08-0.1-0.17l-0.07-0.07l-0.03-0.1c-0.04-0.09-0.07-0.15-0.07-0.17l-0.07-0.2c-0.02-0.04-0.03-0.1-0.03-0.17
					l-0.03-0.2c0-0.25,0.01-0.47,0.03-0.67c0.09-0.69,0.36-1.49,0.81-2.39c0.34-0.69,0.76-1.39,1.28-2.08
					c0.25-0.34,0.49-0.65,0.74-0.94c0.16-0.18,0.3-0.34,0.44-0.47c0.09-0.07,0.17-0.13,0.24-0.2l0.3-0.24
					c0.13-0.09,0.26-0.15,0.37-0.17c0.09-0.04,0.22-0.09,0.4-0.13c0.36-0.07,0.68,0,0.97,0.2s0.46,0.48,0.5,0.84
					c0.04,0.29,0,0.57-0.13,0.84l0.03-0.03l-0.1,0.2l-0.07,0.17c-0.07,0.11-0.13,0.22-0.2,0.34c-0.13,0.2-0.27,0.39-0.4,0.57
					c-0.31,0.36-0.64,0.69-0.97,1.01c-0.36,0.34-0.74,0.62-1.14,0.84c-0.47,0.27-0.93,0.44-1.38,0.5c-0.18,0.02-0.29-0.06-0.34-0.24
					C371.81,31.47,371.89,31.36,372.07,31.31z"/>
				<path d="M421.56,7.12c0.04,0.22,0.04,0.46,0,0.71c-0.05,0.34-0.16,0.74-0.34,1.21c-0.11,0.29-0.26,0.65-0.44,1.07
					c-0.63,1.3-0.95,1.98-0.97,2.05c-0.34,0.78-0.57,1.47-0.71,2.05c-0.2,0.76-0.24,1.43-0.1,2.02c0.04,0.16,0.02,0.31-0.08,0.47
					c-0.1,0.16-0.24,0.26-0.42,0.3c-0.11,0.02-0.22,0.02-0.32-0.02c-0.1-0.03-0.19-0.1-0.27-0.18c-0.08-0.09-0.13-0.19-0.15-0.3
					c-0.02-0.02-0.03-0.04-0.03-0.07V16.4c-0.07-0.74,0.03-1.56,0.3-2.45c0.18-0.63,0.47-1.36,0.87-2.18
					c0.09-0.25,0.25-0.6,0.47-1.06s0.38-0.8,0.47-1.02c0.2-0.4,0.35-0.74,0.44-1.01c0.16-0.38,0.25-0.71,0.27-0.97
					c0.02-0.16,0.02-0.29,0-0.4c-0.02-0.09-0.07-0.18-0.13-0.27c-0.11-0.13-0.35-0.24-0.71-0.3c-0.27-0.07-0.6-0.1-1.01-0.1
					c-0.29,0.02-0.64,0.06-1.04,0.1c-0.69,0.09-1.41,0.24-2.15,0.44c-0.72,0.18-1.43,0.38-2.15,0.6c-2.67,0.87-5.42,2.03-8.26,3.46
					c-1.34,0.67-2.65,1.38-3.93,2.12c-1.39,0.83-2.64,1.65-3.76,2.45c-1.37,1.01-2.46,1.97-3.29,2.89c-0.54,0.6-0.93,1.16-1.18,1.68
					c-0.16,0.31-0.25,0.6-0.27,0.87c0,0.13,0,0.27,0,0.4c0.02,0.02,0.03,0.06,0.03,0.1l0.03,0.07c0.02,0.09,0.04,0.15,0.07,0.17
					c0.11,0.2,0.29,0.42,0.54,0.64c0.22,0.18,0.5,0.36,0.84,0.54c0.52,0.27,1.19,0.55,2.02,0.84c0.74,0.27,2.16,0.72,4.27,1.34
					c1.9,0.54,3.36,0.99,4.37,1.34c1.68,0.61,3.09,1.25,4.23,1.95c0.78,0.49,1.42,0.99,1.92,1.48c0.31,0.29,0.59,0.6,0.84,0.94
					c0.22,0.34,0.43,0.71,0.6,1.11c0.16,0.36,0.28,0.75,0.37,1.18l1.68-0.64c0.87-0.31,1.58-0.57,2.12-0.77
					c0.4-0.16,0.75-0.3,1.04-0.44c0.45-0.2,0.77-0.36,0.97-0.47c0.18-0.11,0.31-0.08,0.4,0.08c0.09,0.17,0.06,0.3-0.1,0.39
					c-0.22,0.13-0.57,0.31-1.04,0.54c-0.31,0.11-0.67,0.25-1.08,0.4c-0.54,0.22-1.24,0.49-2.12,0.81l-1.78,0.67
					c0.02,0.27,0.02,0.52,0,0.74c-0.02,0.36-0.03,0.57-0.03,0.64l-0.03,0.3l-0.07,0.3l-0.13,0.6c0,0.04-0.01,0.1-0.03,0.17
					s-0.04,0.14-0.07,0.22c-0.02,0.08-0.04,0.14-0.07,0.19c-0.04,0.16-0.18,0.54-0.4,1.14c-0.02,0-0.11,0.18-0.27,0.54
					c-0.13,0.29-0.22,0.47-0.27,0.54l-0.3,0.5l-0.17,0.27l-0.17,0.24l-0.34,0.47c-0.04,0.07-0.11,0.16-0.2,0.29
					c-0.09,0.12-0.15,0.19-0.17,0.19c-0.92,1.16-2.03,2.26-3.33,3.29c-1.14,0.9-2.43,1.75-3.86,2.55c-1.3,0.74-2.67,1.42-4.1,2.05
					c-1.5,0.65-2.93,1.19-4.3,1.61c-0.76,0.22-1.51,0.43-2.25,0.6c-0.18,0.07-0.36,0.11-0.54,0.13c-0.22,0.04-0.43,0.09-0.6,0.13
					l-0.27,0.03l-0.3,0.07c-0.16,0.02-0.35,0.04-0.57,0.07c-0.87,0.09-1.68,0.09-2.42,0c-0.45-0.05-0.85-0.12-1.21-0.24
					c-0.47-0.16-0.86-0.35-1.18-0.57c-0.22-0.16-0.4-0.33-0.54-0.5c-0.16-0.22-0.27-0.46-0.34-0.71s-0.09-0.49-0.07-0.74
					c0.02-0.04,0.03-0.11,0.03-0.2c0.02-0.09,0.03-0.15,0.03-0.17l0.1-0.3c0.27-0.7,0.72-1.38,1.34-2.05
					c0.45-0.49,1.03-1.02,1.75-1.58c0.54-0.43,1.16-0.86,1.88-1.31c1.12-0.72,2.44-1.47,3.96-2.25c2.22-1.1,4.99-2.32,8.33-3.66
					c2.28-0.94,5.11-2.02,8.47-3.23l1.28-0.47c-0.04-0.4-0.15-0.77-0.3-1.11c-0.13-0.31-0.29-0.59-0.47-0.84
					c-0.22-0.29-0.45-0.55-0.67-0.77c-0.43-0.43-0.99-0.85-1.68-1.28c-1.01-0.63-2.34-1.23-4-1.81c-0.99-0.36-2.41-0.81-4.27-1.34
					c-2.15-0.65-3.61-1.11-4.37-1.38c-0.87-0.31-1.6-0.63-2.18-0.94c-0.4-0.22-0.75-0.45-1.04-0.67c-0.4-0.34-0.71-0.69-0.91-1.07
					c-0.02-0.02-0.07-0.15-0.13-0.37c-0.07-0.16-0.1-0.28-0.1-0.37c-0.04-0.25-0.06-0.49-0.03-0.74c0.04-0.4,0.18-0.84,0.4-1.31
					c0.29-0.63,0.75-1.3,1.38-2.02c0.9-0.96,2.07-1.98,3.53-3.06c1.16-0.83,2.45-1.66,3.86-2.49c1.3-0.78,2.64-1.51,4.03-2.18
					c1.41-0.69,2.79-1.33,4.13-1.92c1.55-0.63,2.99-1.15,4.33-1.58c1.7-0.52,3.21-0.84,4.54-0.97c0.99-0.09,1.79-0.07,2.42,0.07
					c0.25,0.07,0.47,0.15,0.67,0.24c0.25,0.11,0.45,0.27,0.6,0.47C421.4,6.57,421.51,6.83,421.56,7.12z M411.54,34.61
					c0-0.04,0-0.11,0-0.2l-1.14,0.4c-3.34,1.25-6.15,2.34-8.43,3.26c-1.39,0.58-2.77,1.19-4.13,1.81c-1.5,0.67-2.86,1.32-4.07,1.95
					c-1.5,0.78-2.8,1.53-3.9,2.25c-0.67,0.45-1.28,0.88-1.81,1.31c-0.63,0.49-1.15,0.99-1.58,1.48c-0.22,0.25-0.44,0.54-0.64,0.87
					c-0.18,0.29-0.31,0.59-0.4,0.91c-0.18,0.6-0.03,1.06,0.44,1.38c0.22,0.16,0.52,0.27,0.87,0.34c0.34,0.09,0.67,0.15,1.01,0.17
					c0.67,0.04,1.39,0.03,2.15-0.03c0.2-0.02,0.37-0.04,0.5-0.07l0.27-0.03l0.27-0.07c0.16-0.02,0.34-0.06,0.54-0.1
					c0.18-0.04,0.36-0.09,0.54-0.13c0.72-0.18,1.43-0.38,2.15-0.6c1.32-0.43,2.71-0.95,4.17-1.58c1.41-0.6,2.74-1.27,4-1.98
					c1.37-0.78,2.6-1.6,3.7-2.45c1.21-0.96,2.24-1.99,3.09-3.09c0.02,0,0.07-0.06,0.15-0.17c0.08-0.11,0.14-0.19,0.19-0.24l0.3-0.47
					l0.17-0.2l0.13-0.24l0.27-0.47c0.02-0.02,0.04-0.06,0.07-0.1c0.02-0.04,0.04-0.08,0.05-0.12c0.01-0.03,0.03-0.07,0.05-0.12
					c0.02-0.04,0.04-0.09,0.07-0.13l0.24-0.47c0.2-0.56,0.32-0.9,0.37-1.01c0-0.02,0.02-0.1,0.05-0.22
					c0.03-0.12,0.06-0.22,0.08-0.29l0.1-0.5l0.07-0.27l0.03-0.27L411.54,34.61z"/>
				<path d="M419.14,31.31c0.38-0.07,0.76-0.22,1.14-0.47c0.36-0.22,0.68-0.49,0.97-0.81c0.29-0.29,0.56-0.62,0.81-0.97
					c0.11-0.18,0.22-0.36,0.34-0.54c0.02-0.07,0.07-0.17,0.13-0.3l0.03-0.1l0.03-0.13l0.03-0.03c0.02-0.11,0.02-0.21,0-0.3
					c-0.05-0.07-0.09-0.1-0.13-0.1s-0.09,0.01-0.13,0.03c-0.11,0.02-0.21,0.08-0.3,0.17c-0.02,0-0.06,0.02-0.1,0.07
					c-0.02,0.02-0.04,0.04-0.07,0.07c-0.09,0.09-0.15,0.15-0.17,0.17c-0.02,0.02-0.15,0.16-0.37,0.4c-0.22,0.27-0.46,0.56-0.71,0.87
					c-0.47,0.61-0.89,1.22-1.24,1.85c-0.18,0.36-0.34,0.69-0.47,1.01c-0.16,0.36-0.26,0.68-0.3,0.97c-0.02,0.04-0.03,0.12-0.03,0.24
					c0,0.04-0.01,0.12-0.03,0.24l0.03,0.1c0,0.04,0,0.08,0,0.1l0.03,0.1l0.03,0.1v0.03l0.03,0.07l0.03,0.07
					c0.07,0.07,0.1,0.11,0.1,0.13l0.1,0.07l0.07,0.03l0.03,0.03c0.02,0,0.03,0.01,0.03,0.03h0.07c0.09,0.04,0.22,0.06,0.4,0.03
					c0.13-0.02,0.29-0.07,0.47-0.13c0.29-0.11,0.62-0.27,0.97-0.47c0.56-0.34,1.19-0.77,1.88-1.31c0.56-0.45,1.14-0.95,1.75-1.51
					c0.13-0.13,0.27-0.12,0.4,0.03c0.11,0.13,0.11,0.26,0,0.37c-0.6,0.63-1.18,1.18-1.71,1.65c-0.67,0.6-1.3,1.1-1.88,1.48
					c-0.4,0.25-0.76,0.44-1.07,0.57c-0.25,0.11-0.46,0.18-0.64,0.2c-0.29,0.07-0.55,0.08-0.77,0.03c-0.11-0.02-0.19-0.04-0.24-0.07
					c-0.04-0.02-0.08-0.03-0.1-0.03l-0.07-0.07l-0.17-0.07c-0.02-0.02-0.08-0.07-0.17-0.13c-0.02-0.02-0.11-0.12-0.27-0.3
					c-0.02-0.02-0.06-0.08-0.1-0.17l-0.07-0.07l-0.03-0.1c-0.04-0.09-0.07-0.15-0.07-0.17l-0.07-0.2c-0.02-0.04-0.03-0.1-0.03-0.17
					l-0.03-0.2c0-0.25,0.01-0.47,0.03-0.67c0.09-0.69,0.36-1.49,0.81-2.39c0.34-0.69,0.76-1.39,1.28-2.08
					c0.25-0.34,0.49-0.65,0.74-0.94c0.16-0.18,0.3-0.34,0.44-0.47c0.09-0.07,0.17-0.13,0.24-0.2l0.3-0.24
					c0.13-0.09,0.26-0.15,0.37-0.17c0.09-0.04,0.22-0.09,0.4-0.13c0.36-0.07,0.68,0,0.97,0.2s0.46,0.48,0.5,0.84
					c0.04,0.29,0,0.57-0.13,0.84l0.03-0.03l-0.1,0.2l-0.07,0.17c-0.07,0.11-0.13,0.22-0.2,0.34c-0.13,0.2-0.27,0.39-0.4,0.57
					c-0.31,0.36-0.64,0.69-0.97,1.01c-0.36,0.34-0.74,0.62-1.14,0.84c-0.47,0.27-0.93,0.44-1.38,0.5c-0.18,0.02-0.29-0.06-0.34-0.24
					C418.88,31.47,418.96,31.36,419.14,31.31z"/>
				<path d="M431.74,30.99c0.18,0.08,0.22,0.2,0.13,0.35v0.03c-0.31,0.63-0.64,1.21-0.97,1.75c-0.36,0.58-0.73,1.13-1.11,1.65
					c-0.9,1.21-1.78,2.21-2.65,2.99c-0.6,0.51-1.16,0.92-1.68,1.21c-0.36,0.2-0.69,0.35-1.01,0.44c-0.11,0.02-0.21,0.04-0.3,0.07
					h-0.07c-0.07,0-0.11,0-0.13,0c-0.07,0-0.13-0.01-0.2-0.03c-0.22-0.04-0.39-0.15-0.5-0.3c-0.11-0.13-0.18-0.3-0.2-0.5
					c-0.02-0.18,0-0.4,0.07-0.67c0.05-0.18,0.1-0.36,0.17-0.54c0.11-0.36,0.25-0.68,0.4-0.97c0.2-0.38,0.53-0.96,0.97-1.75
					c0.09-0.13,0.2-0.31,0.34-0.54c0.13-0.22,0.26-0.43,0.37-0.62s0.21-0.36,0.3-0.52c0.2-0.34,0.36-0.62,0.47-0.84
					c0-0.02,0.01-0.04,0.03-0.07V32.1h-0.1c-0.45-0.09-0.83-0.2-1.14-0.34c-0.22-0.09-0.43-0.21-0.6-0.37
					c-0.2-0.18-0.36-0.4-0.47-0.67c-0.09-0.25-0.11-0.5-0.07-0.77c0-0.09,0.01-0.15,0.03-0.17v-0.13c0.02-0.13,0.05-0.22,0.07-0.27
					c0.16-0.69,0.46-1.37,0.91-2.02c0.4-0.63,0.9-1.14,1.48-1.55c0.04-0.04,0.11-0.1,0.2-0.17c0.11-0.07,0.2-0.12,0.27-0.17
					c0.18-0.09,0.37-0.17,0.57-0.24c0.25-0.04,0.47-0.07,0.67-0.07c0.27,0.02,0.49,0.09,0.67,0.2c0.11,0.07,0.22,0.16,0.34,0.27
					c0.09,0.11,0.16,0.21,0.2,0.3c0.09,0.22,0.13,0.46,0.13,0.71c-0.02,0.34-0.13,0.72-0.34,1.14l-0.03,0.03
					c-0.27,0.4-0.55,0.76-0.84,1.07c-0.27,0.29-0.6,0.59-1.01,0.91c-0.29,0.25-0.65,0.5-1.07,0.77l-0.07,0.07
					c0.11,0.02,0.2,0.04,0.27,0.07c0.13,0,0.29,0.01,0.47,0.03l0.24,0.03h0.03c0.04,0,0.09,0,0.13,0c0.11,0.02,0.21,0.07,0.3,0.13
					c0.11,0.09,0.2,0.19,0.27,0.3c0.02,0.09,0.04,0.18,0.07,0.27c0.02,0.11,0.02,0.22,0,0.34c-0.02,0.07-0.04,0.13-0.07,0.2
					c-0.02,0.09-0.06,0.19-0.1,0.3c-0.04,0.16-0.12,0.32-0.24,0.5c-0.11,0.25-0.28,0.55-0.5,0.91c-0.09,0.16-0.2,0.33-0.32,0.52
					s-0.26,0.4-0.4,0.62c-0.15,0.22-0.25,0.39-0.32,0.5c-0.38,0.6-0.72,1.16-1.01,1.68c-0.22,0.4-0.37,0.67-0.44,0.81
					c-0.07,0.16-0.12,0.29-0.17,0.4c-0.02,0.07-0.03,0.13-0.03,0.2c0.04,0,0.08,0,0.1,0c0.25-0.05,0.53-0.12,0.84-0.24
					c0.49-0.22,1.02-0.56,1.58-1.01c0.94-0.76,1.83-1.69,2.65-2.79c0.43-0.56,0.79-1.1,1.11-1.61c0.4-0.63,0.72-1.2,0.94-1.71
					C431.43,30.96,431.56,30.92,431.74,30.99z M424.01,38.47h0.03h-0.07H424.01z M425.12,29.97v0.1v0.03
					c0.22-0.13,0.37-0.22,0.44-0.27c0.38-0.22,0.73-0.46,1.04-0.71c0.34-0.27,0.64-0.54,0.91-0.81c0.29-0.34,0.53-0.65,0.71-0.94
					c0.07-0.16,0.11-0.29,0.13-0.4c0.04-0.11,0.07-0.22,0.07-0.34c-0.02-0.11-0.04-0.2-0.07-0.27c-0.04-0.04-0.1-0.09-0.17-0.13
					c-0.16-0.07-0.35-0.06-0.57,0.03c-0.09,0.04-0.19,0.1-0.3,0.17c-0.05,0.02-0.09,0.06-0.13,0.1c-0.07,0.07-0.12,0.11-0.17,0.13
					c-0.45,0.45-0.83,0.92-1.14,1.41c-0.34,0.52-0.56,1.04-0.67,1.58c0,0.02-0.01,0.09-0.03,0.2L425.12,29.97z"/>
				<path d="M436.61,31.05c0.13,0.11,0.15,0.24,0.03,0.37c-0.13,0.18-0.32,0.4-0.57,0.67c-0.18,0.18-0.38,0.38-0.61,0.61
					c-0.4,0.4-0.82,0.79-1.24,1.18c-0.45,0.42-0.87,0.81-1.28,1.14c-0.25,0.2-0.47,0.38-0.67,0.54c-0.29,0.22-0.54,0.39-0.74,0.5
					c-0.09,0.07-0.17,0.11-0.24,0.13c-0.09,0.04-0.18,0.08-0.27,0.1c-0.02,0-0.06,0-0.1,0c-0.04,0.02-0.09,0.03-0.13,0.03
					c-0.07-0.02-0.12-0.03-0.17-0.03c-0.02,0-0.07-0.01-0.13-0.03c-0.13-0.07-0.25-0.17-0.34-0.3c-0.11-0.16-0.19-0.37-0.24-0.64
					c0-0.16,0.01-0.34,0.03-0.54c0.04-0.45,0.19-1.03,0.44-1.75c0.16-0.43,0.36-0.92,0.6-1.48c-0.07-0.02-0.11-0.07-0.13-0.13
					c-0.09-0.18-0.07-0.35,0.07-0.5l0.03-0.03c0.04-0.04,0.11-0.11,0.2-0.2c0.11-0.18,0.18-0.29,0.2-0.34
					c0.16-0.22,0.34-0.45,0.54-0.67l0.03-0.03c0.13-0.11,0.29-0.16,0.47-0.13c0.18,0.02,0.32,0.1,0.44,0.24
					c0.18,0.2,0.2,0.44,0.07,0.71c-0.02,0.05-0.06,0.11-0.1,0.19s-0.08,0.15-0.1,0.2c-0.02,0.06-0.06,0.12-0.1,0.19
					s-0.08,0.12-0.1,0.17c-0.13,0.29-0.26,0.54-0.37,0.74c-0.29,0.56-0.53,1.06-0.71,1.51c-0.27,0.6-0.43,1.1-0.47,1.48
					c-0.02,0.13-0.03,0.25-0.03,0.34c0,0.02,0,0.04,0,0.07c0.05,0,0.1-0.02,0.17-0.07c0.18-0.09,0.4-0.22,0.67-0.4
					c0.2-0.13,0.42-0.29,0.67-0.47c0.4-0.31,0.84-0.66,1.31-1.04c0.43-0.38,0.84-0.75,1.24-1.11c0.22-0.2,0.44-0.39,0.64-0.57
					c0.25-0.25,0.44-0.44,0.57-0.57V31.1C436.32,30.91,436.45,30.91,436.61,31.05z M432.84,29.13c-0.16-0.07-0.27-0.18-0.34-0.34
					s-0.07-0.32,0-0.5c0.16-0.34,0.36-0.69,0.6-1.07c0.09-0.13,0.22-0.22,0.4-0.25s0.34-0.01,0.49,0.08s0.24,0.22,0.27,0.4
					s-0.01,0.35-0.12,0.5c-0.2,0.29-0.36,0.57-0.47,0.84c-0.11,0.27-0.3,0.4-0.57,0.4C433.02,29.2,432.93,29.17,432.84,29.13z"/>
				<path d="M436.3,31.31c0.38-0.07,0.76-0.22,1.14-0.47c0.36-0.22,0.68-0.49,0.97-0.81c0.29-0.29,0.56-0.62,0.81-0.97
					c0.11-0.18,0.22-0.36,0.34-0.54c0.02-0.07,0.07-0.17,0.13-0.3l0.03-0.1l0.03-0.13l0.03-0.03c0.02-0.11,0.02-0.21,0-0.3
					c-0.05-0.07-0.09-0.1-0.13-0.1s-0.09,0.01-0.13,0.03c-0.11,0.02-0.21,0.08-0.3,0.17c-0.02,0-0.06,0.02-0.1,0.07
					c-0.02,0.02-0.04,0.04-0.07,0.07c-0.09,0.09-0.15,0.15-0.17,0.17c-0.02,0.02-0.15,0.16-0.37,0.4c-0.22,0.27-0.46,0.56-0.71,0.87
					c-0.47,0.61-0.89,1.22-1.24,1.85c-0.18,0.36-0.34,0.69-0.47,1.01c-0.16,0.36-0.26,0.68-0.3,0.97c-0.02,0.04-0.03,0.12-0.03,0.24
					c0,0.04-0.01,0.12-0.03,0.24l0.03,0.1c0,0.04,0,0.08,0,0.1l0.03,0.1l0.03,0.1v0.03l0.03,0.07l0.03,0.07
					c0.07,0.07,0.1,0.11,0.1,0.13l0.1,0.07l0.07,0.03l0.03,0.03c0.02,0,0.03,0.01,0.03,0.03h0.07c0.09,0.04,0.22,0.06,0.4,0.03
					c0.13-0.02,0.29-0.07,0.47-0.13c0.29-0.11,0.62-0.27,0.97-0.47c0.56-0.34,1.19-0.77,1.88-1.31c0.56-0.45,1.14-0.95,1.75-1.51
					c0.13-0.13,0.27-0.12,0.4,0.03c0.11,0.13,0.11,0.26,0,0.37c-0.6,0.63-1.18,1.18-1.71,1.65c-0.67,0.6-1.3,1.1-1.88,1.48
					c-0.4,0.25-0.76,0.44-1.07,0.57c-0.25,0.11-0.46,0.18-0.64,0.2c-0.29,0.07-0.55,0.08-0.77,0.03c-0.11-0.02-0.19-0.04-0.24-0.07
					c-0.04-0.02-0.08-0.03-0.1-0.03l-0.07-0.07l-0.17-0.07c-0.02-0.02-0.08-0.07-0.17-0.13c-0.02-0.02-0.11-0.12-0.27-0.3
					c-0.02-0.02-0.06-0.08-0.1-0.17l-0.07-0.07l-0.03-0.1c-0.04-0.09-0.07-0.15-0.07-0.17l-0.07-0.2c-0.02-0.04-0.03-0.1-0.03-0.17
					l-0.03-0.2c0-0.25,0.01-0.47,0.03-0.67c0.09-0.69,0.36-1.49,0.81-2.39c0.34-0.69,0.76-1.39,1.28-2.08
					c0.25-0.34,0.49-0.65,0.74-0.94c0.16-0.18,0.3-0.34,0.44-0.47c0.09-0.07,0.17-0.13,0.24-0.2l0.3-0.24
					c0.13-0.09,0.26-0.15,0.37-0.17c0.09-0.04,0.22-0.09,0.4-0.13c0.36-0.07,0.68,0,0.97,0.2s0.46,0.48,0.5,0.84
					c0.04,0.29,0,0.57-0.13,0.84l0.03-0.03l-0.1,0.2l-0.07,0.17c-0.07,0.11-0.13,0.22-0.2,0.34c-0.13,0.2-0.27,0.39-0.4,0.57
					c-0.31,0.36-0.64,0.69-0.97,1.01c-0.36,0.34-0.74,0.62-1.14,0.84c-0.47,0.27-0.93,0.44-1.38,0.5c-0.18,0.02-0.29-0.06-0.34-0.24
					C436.05,31.47,436.12,31.36,436.3,31.31z"/>
				<path d="M449.59,31.2c0.08,0.17,0.03,0.3-0.15,0.39c-0.02,0-0.07,0.02-0.13,0.07l-0.13,0.07l-0.27,0.17l-0.54,0.37l-1.11,0.67
					c-0.83,0.54-1.57,1.01-2.22,1.41c0.04,0.45-0.01,0.9-0.17,1.34c-0.22,0.56-0.55,1.06-0.97,1.51c-0.47,0.45-0.99,0.76-1.55,0.94
					c-0.36,0.09-0.68,0.12-0.97,0.1c-0.34-0.05-0.64-0.17-0.92-0.39c-0.28-0.21-0.49-0.47-0.62-0.76c-0.09-0.18-0.13-0.35-0.13-0.5
					c0-0.13,0.01-0.25,0.03-0.34c0.04-0.13,0.12-0.24,0.24-0.3c0.07-0.07,0.16-0.1,0.27-0.1c0.07,0,0.15-0.01,0.24-0.02
					c0.09-0.01,0.18-0.03,0.27-0.05c0.16-0.04,0.35-0.12,0.57-0.24c0.34-0.13,0.72-0.31,1.14-0.54c0.38-0.18,0.79-0.4,1.24-0.67
					c0-0.05,0-0.08,0-0.1V34.2l-0.03-0.07c-0.02-0.13-0.11-0.28-0.27-0.44c-0.11-0.13-0.27-0.29-0.47-0.47
					c-0.74-0.63-1.14-0.99-1.21-1.08c-0.25-0.27-0.44-0.53-0.57-0.77c-0.07-0.13-0.12-0.3-0.17-0.5c-0.04-0.16-0.06-0.35-0.03-0.57
					c0-0.31,0.07-0.63,0.2-0.94c0.11-0.27,0.27-0.53,0.47-0.77c0.31-0.43,0.71-0.83,1.18-1.21c0.43-0.34,0.88-0.64,1.38-0.91
					c0.58-0.29,1.13-0.47,1.65-0.54c0.11-0.02,0.22-0.01,0.32,0.03c0.1,0.05,0.19,0.11,0.25,0.2c0.07,0.09,0.11,0.19,0.13,0.3
					c0,0.04,0,0.1,0,0.17c0,0.04-0.01,0.09-0.03,0.13l-0.03,0.07c-0.04,0.09-0.07,0.15-0.07,0.17c-0.02,0.04-0.07,0.12-0.13,0.24
					c-0.02,0.02-0.11,0.16-0.27,0.4l-0.54,0.81c-0.18,0.27-0.34,0.53-0.47,0.77c-0.09,0.16-0.17,0.29-0.24,0.4
					c-0.02,0.07-0.04,0.13-0.07,0.2c-0.02,0.04-0.03,0.08-0.03,0.1c-0.02,0-0.03,0.01-0.03,0.03c0,0.18-0.1,0.27-0.29,0.27
					s-0.29-0.1-0.29-0.3c0.02-0.04,0.04-0.1,0.07-0.17c0-0.04,0.01-0.09,0.03-0.13c0.02-0.07,0.06-0.15,0.1-0.24l0.2-0.44
					c0.13-0.34,0.26-0.63,0.37-0.87c0.07-0.18,0.13-0.37,0.2-0.57c-0.09,0.04-0.18,0.09-0.27,0.13c-0.4,0.2-0.78,0.45-1.14,0.74
					c-0.38,0.31-0.69,0.64-0.94,0.97c-0.29,0.36-0.44,0.68-0.44,0.97v0.07c0,0.13,0.03,0.26,0.1,0.39c0.07,0.12,0.19,0.27,0.37,0.45
					c0.04,0.04,0.41,0.37,1.11,0.97c0.25,0.22,0.46,0.42,0.64,0.6c0.11,0.16,0.2,0.29,0.27,0.4c0.09,0.13,0.16,0.28,0.2,0.44
					c0.63-0.38,1.31-0.8,2.05-1.24l1.11-0.67l0.54-0.34l0.3-0.17l0.13-0.1c0.07-0.04,0.12-0.08,0.17-0.1
					C449.38,30.98,449.51,31.03,449.59,31.2z M443.63,35.24c0-0.02,0-0.06,0-0.1c-0.31,0.18-0.59,0.34-0.84,0.47
					c-0.45,0.25-0.85,0.45-1.21,0.6c-0.25,0.09-0.46,0.17-0.64,0.24c-0.11,0.02-0.24,0.04-0.37,0.07c-0.02,0.02-0.07,0.03-0.13,0.03
					c0.02,0.07,0.06,0.13,0.1,0.2c0.09,0.16,0.22,0.28,0.4,0.37c0.16,0.11,0.32,0.16,0.5,0.13c0.16,0,0.34-0.04,0.54-0.13
					c0.34-0.18,0.66-0.45,0.97-0.81C443.27,35.96,443.49,35.6,443.63,35.24z M440.94,30.31c0,0.02-0.01,0.03-0.03,0.03L440.94,30.31
					z M445.24,26.51l0.03,0.03v-0.03H445.24z"/>
			</g>
		</g>
	</g>
	<g id="GUIDE">
	</g>
</g>
<g id="INVISIBLE_BOX_00000013195011458630479470000012517266326282906764_">
	<g id="INVISIBLE_BOX_00000147184700024164957530000000576513103372283039_">
		<rect id="INVISIBLE_BOX" y="0" class="st0" width="590" height="58"/>
	</g>
</g>
</svg>
